<svg xmlns="http://www.w3.org/2000/svg" xmlns:xlink="http://www.w3.org/1999/xlink" width="500" zoomAndPan="magnify" viewBox="0 0 375 374.999991" height="500" preserveAspectRatio="xMidYMid meet" version="1.0"><defs><clipPath id="d2e67ffbf0"><path d="M 16.382812 16.382812 L 358.382812 16.382812 L 358.382812 358.382812 L 16.382812 358.382812 Z M 16.382812 16.382812 " clip-rule="nonzero"/></clipPath></defs><path fill="#545454" d="M 258.992188 125.71875 C 258.441406 123.722656 257.105469 122.101562 255.195312 121.101562 C 255.605469 116.628906 255 111.136719 253.96875 106.609375 C 253.058594 102.902344 251.667969 98.75 249.527344 94.398438 C 247.28125 90.140625 244.503906 85.578125 240.597656 81.386719 C 236.890625 77.039062 232.113281 73.101562 226.714844 69.605469 C 179.691406 39.785156 114.757812 75.058594 119.800781 121.121094 C 117.910156 122.101562 116.574219 123.738281 116.039062 125.71875 C 104.898438 125.914062 95.949219 134.183594 95.949219 144.398438 C 95.949219 154.613281 104.898438 162.902344 116.039062 163.097656 C 116.914062 166.324219 119.960938 168.765625 123.757812 168.765625 C 128.265625 168.765625 131.902344 165.433594 131.902344 161.3125 L 131.902344 127.5 C 131.902344 125.148438 130.65625 123.152344 128.820312 121.777344 C 130.851562 110.140625 136.894531 97.839844 145.378906 90.210938 C 157.839844 78.074219 179.460938 71.050781 203.21875 76.34375 C 212.347656 79.070312 221.347656 83.652344 228.851562 90.976562 C 237.195312 98.480469 243.96875 109.730469 246.175781 121.796875 C 241.363281 125.363281 243.09375 128.445312 243.09375 161.3125 C 243.09375 163.882812 244.609375 166.054688 246.785156 167.390625 L 246.785156 170.246094 C 246.785156 172.0625 246.265625 173.84375 245.285156 175.378906 C 234.644531 191.9375 233.949219 193.628906 217.890625 198.765625 C 212.84375 200.386719 207.140625 201.082031 201.367188 202.488281 C 196.074219 197.230469 186.679688 200.6875 186.679688 207.730469 C 186.679688 216.589844 200.527344 218.621094 203.21875 209.742188 C 207.105469 208.800781 211.117188 208.246094 214.894531 207.089844 C 235.609375 200.796875 242.382812 197.054688 253.34375 176.125 C 254.378906 174.148438 254.929688 171.957031 254.929688 169.710938 L 254.929688 167.855469 C 256.960938 166.894531 258.421875 165.183594 258.992188 163.097656 C 270.097656 162.882812 279.046875 154.613281 279.046875 144.398438 C 279.046875 134.203125 270.097656 125.933594 258.992188 125.71875 " fill-opacity="1" fill-rule="nonzero"/><path fill="#545454" d="M 187.535156 246.605469 C 194.183594 237.265625 199.957031 229.246094 205.644531 221.132812 C 212.292969 211.652344 218.996094 208.585938 229.492188 212.132812 C 242.84375 216.640625 256.070312 221.667969 268.976562 227.285156 C 280.082031 232.132812 286.320312 240.757812 285.625 253.558594 C 285.265625 259.867188 285.625 266.195312 285.535156 272.503906 C 285.304688 289.902344 277.390625 297.992188 260.152344 298.082031 C 237.90625 298.207031 215.660156 298.117188 193.417969 298.117188 C 167.554688 298.117188 141.707031 298.191406 115.84375 298.082031 C 97.359375 298.011719 89.570312 290.117188 89.460938 271.71875 C 89.425781 265.714844 89.765625 259.671875 89.390625 253.683594 C 88.570312 240.367188 95.433594 231.792969 106.753906 226.910156 C 119.675781 221.328125 132.972656 216.464844 146.339844 212.042969 C 157.75 208.246094 161.277344 209.941406 168.335938 219.832031 C 174.414062 228.351562 180.527344 236.855469 187.535156 246.605469 " fill-opacity="1" fill-rule="nonzero"/><path fill="#545454" d="M 234.644531 135.574219 C 233.433594 151.261719 228.476562 171.332031 212.027344 186.769531 C 198.070312 199.851562 176.785156 200.191406 163.0625 186.785156 C 144.023438 168.195312 138.035156 144.578125 140.976562 119.085938 C 142.527344 105.738281 150.65625 95.238281 164.328125 90.765625 C 184.628906 84.117188 204.289062 83.472656 222.1875 97.664062 C 232.632812 105.949219 235.019531 117.324219 234.644531 135.574219 " fill-opacity="1" fill-rule="nonzero"/><g clip-path="url(#d2e67ffbf0)"><path fill="#545454" d="M 187.5 345.210938 C 100.390625 345.210938 29.785156 274.609375 29.785156 187.5 C 29.785156 100.390625 100.390625 29.785156 187.5 29.785156 C 274.609375 29.785156 345.210938 100.390625 345.210938 187.5 C 345.210938 274.609375 274.609375 345.210938 187.5 345.210938 Z M 187.5 16.382812 C 92.992188 16.382812 16.382812 92.992188 16.382812 187.5 C 16.382812 282.003906 92.992188 358.617188 187.5 358.617188 C 282.003906 358.617188 358.617188 282.003906 358.617188 187.5 C 358.617188 92.992188 282.003906 16.382812 187.5 16.382812 " fill-opacity="1" fill-rule="nonzero"/></g></svg>