<svg xmlns="http://www.w3.org/2000/svg" xmlns:xlink="http://www.w3.org/1999/xlink" width="500" zoomAndPan="magnify" viewBox="0 0 375 149.999998" height="200" preserveAspectRatio="xMidYMid meet" version="1.0"><defs><g/></defs><path fill="#3879bd" d="M 171.699219 28.671875 L 66.78125 30.960938 L 168.28125 33.171875 L 144.535156 89.191406 L 67.003906 87.960938 C 66.375 87.230469 65.582031 86.632812 64.65625 86.234375 L 35.183594 4.375 C 34.359375 2.097656 32.195312 0.445312 29.636719 0.40625 L 29.4375 0.402344 L 6.675781 0.0390625 C 6.617188 0.0390625 6.53125 0.0390625 6.472656 0.0390625 C 2.878906 0.0976562 0.015625 3.058594 0.0703125 6.652344 C 0.125 10.246094 3.085938 13.117188 6.675781 13.058594 L 25.292969 12.765625 L 55.933594 90.089844 C 55.90625 90.167969 55.875 90.246094 55.847656 90.332031 L 48.480469 114.652344 L 48.308594 115.21875 C 48.152344 115.742188 48.082031 116.304688 48.113281 116.886719 C 48.265625 119.570312 50.5625 121.628906 53.246094 121.476562 L 143.246094 116.394531 L 60.769531 111.742188 L 67.042969 97.175781 L 146.730469 95.910156 L 146.839844 95.910156 C 148.125 95.886719 149.332031 95.097656 149.828125 93.824219 L 173.816406 31.820312 L 173.851562 31.730469 C 173.953125 31.464844 174.003906 31.175781 174 30.875 C 173.972656 29.632812 172.941406 28.644531 171.699219 28.671875 " fill-opacity="1" fill-rule="nonzero"/><path fill="#3879bd" d="M 67.519531 122.355469 C 59.90625 122.355469 53.730469 128.535156 53.730469 136.15625 C 53.730469 143.78125 59.90625 149.960938 67.519531 149.960938 C 75.136719 149.960938 81.3125 143.78125 81.3125 136.15625 C 81.3125 128.535156 75.136719 122.355469 67.519531 122.355469 " fill-opacity="1" fill-rule="nonzero"/><path fill="#3879bd" d="M 122.953125 122.355469 C 115.335938 122.355469 109.160156 128.535156 109.160156 136.15625 C 109.160156 143.78125 115.335938 149.960938 122.953125 149.960938 C 130.570312 149.960938 136.742188 143.78125 136.742188 136.15625 C 136.742188 128.535156 130.570312 122.355469 122.953125 122.355469 " fill-opacity="1" fill-rule="nonzero"/><g fill="#ffffff" fill-opacity="0.4"><g transform="translate(174.718352, 122.225862)"><g><path d="M 27.171875 -14.9375 L 69.582031 -65.269531 L 69.582031 -80.207031 L 7.019531 -80.207031 L 7.019531 -65.269531 L 49.429688 -65.269531 L 7.019531 -14.9375 L 7.019531 0 L 69.679688 0 L 69.679688 -14.9375 Z M 27.171875 -14.9375 "/></g></g></g><g fill="#ffffff" fill-opacity="0.4"><g transform="translate(251.412519, 122.225862)"><g><path d="M 7.019531 -80.207031 L 22.058594 -80.207031 L 22.058594 -0.300781 L 7.019531 -0.300781 Z M 7.019531 -80.207031 "/></g></g></g><g fill="#ffffff" fill-opacity="0.4"><g transform="translate(280.486129, 122.225862)"><g><path d="M 67.273438 -80.207031 L 7.019531 -80.207031 L 7.019531 -65.269531 L 29.675781 -65.269531 L 29.675781 0 L 44.617188 0 L 44.617188 -65.269531 L 67.273438 -65.269531 Z M 67.273438 -80.207031 "/></g></g></g><g fill="#000000" fill-opacity="1"><g transform="translate(180.568529, 119.980187)"><g><path d="M 27.171875 -14.9375 L 69.582031 -65.269531 L 69.582031 -80.207031 L 7.019531 -80.207031 L 7.019531 -65.269531 L 49.429688 -65.269531 L 7.019531 -14.9375 L 7.019531 0 L 69.679688 0 L 69.679688 -14.9375 Z M 27.171875 -14.9375 "/></g></g></g><g fill="#000000" fill-opacity="1"><g transform="translate(257.262696, 119.980187)"><g><path d="M 7.019531 -80.207031 L 22.058594 -80.207031 L 22.058594 -0.300781 L 7.019531 -0.300781 Z M 7.019531 -80.207031 "/></g></g></g><g fill="#000000" fill-opacity="1"><g transform="translate(286.336307, 119.980187)"><g><path d="M 67.273438 -80.207031 L 7.019531 -80.207031 L 7.019531 -65.269531 L 29.675781 -65.269531 L 29.675781 0 L 44.617188 0 L 44.617188 -65.269531 L 67.273438 -65.269531 Z M 67.273438 -80.207031 "/></g></g></g></svg>