<svg xmlns="http://www.w3.org/2000/svg" xmlns:xlink="http://www.w3.org/1999/xlink" width="500" zoomAndPan="magnify" viewBox="0 0 375 374.999991" height="500" preserveAspectRatio="xMidYMid meet" version="1.0"><path fill="#000000" d="M 269.894531 134.691406 C 265.53125 129.796875 257.664062 129.210938 251.527344 128.507812 C 244.933594 127.742188 238.867188 125.199219 232.273438 124.375 C 219.554688 122.785156 207.222656 122.996094 194.433594 123.058594 C 180.144531 123.136719 165.746094 125.429688 151.386719 125.679688 C 139.53125 125.882812 125.050781 127.230469 113.757812 130.832031 C 107.695312 132.773438 101.898438 133.304688 98.070312 138.496094 C 109.414062 145.261719 125.011719 143.371094 137.570312 145.996094 C 146.179688 147.777344 155.4375 146.890625 164.199219 146.890625 C 172.023438 146.890625 179.914062 147.144531 187.761719 146.933594 C 201.769531 146.582031 216.308594 145.070312 229.941406 141.894531 C 236.695312 140.355469 244.320312 141.894531 250.742188 139.84375 C 257.042969 137.839844 263.695312 137.046875 269.894531 134.691406 Z M 284.695312 195.457031 C 284.726562 193.988281 284.433594 191.835938 283.316406 190.761719 C 283.277344 190.78125 283.238281 190.820312 283.21875 190.839844 C 282.777344 191.386719 282.554688 192.1875 282.425781 192.875 C 282.261719 193.796875 282.222656 194.835938 282.515625 195.738281 C 282.714844 196.402344 283.21875 196.796875 283.710938 197.257812 C 284.375 197.105469 284.675781 196.492188 284.695312 195.457031 Z M 281.308594 248.136719 C 282.777344 247.84375 299.597656 241.800781 299.183594 240.113281 C 296.191406 228.144531 293.648438 216.214844 290.914062 204.21875 C 290.191406 201.058594 289.40625 197.890625 288.605469 194.714844 C 288.625 195.4375 288.582031 196.183594 288.441406 196.855469 C 287.800781 200.273438 284.925781 201.804688 281.640625 201 C 280.675781 200.769531 280.265625 200.042969 280.242188 199.28125 C 279.328125 198.203125 278.726562 197.085938 278.503906 195.5 C 278.292969 193.890625 278.414062 192.109375 278.996094 190.601562 C 279.992188 188.074219 282.636719 185.300781 285.4375 187.433594 C 286.253906 188.035156 286.90625 188.902344 287.386719 189.855469 C 285.75 183.199219 284.222656 176.519531 283.398438 169.824219 C 282.472656 162.269531 281.128906 156.738281 277.21875 150.160156 C 276.394531 148.792969 275.589844 147.34375 274.847656 145.835938 C 273.21875 146.8125 271.402344 147.636719 269.601562 147.777344 C 267.101562 147.988281 264.558594 148.832031 262.265625 149.890625 C 259.996094 150.925781 258.027344 147.554688 260.308594 146.5 C 262.558594 145.445312 264.929688 144.78125 267.292969 144.015625 C 268.425781 143.644531 269.683594 143.765625 270.878906 143.371094 C 271.722656 143.089844 272.488281 142.679688 273.199219 142.234375 C 272.636719 140.878906 272.125 139.511719 271.722656 138.121094 C 266.125 140.214844 260.238281 140.917969 254.5625 142.738281 C 246.792969 145.210938 238.925781 143.855469 230.996094 145.675781 C 217.109375 148.894531 202.039062 150.824219 187.761719 150.84375 C 169.816406 150.882812 151.738281 151.570312 133.953125 149.457031 C 122.117188 148.070312 106.832031 148.199219 96.273438 141.972656 C 95.871094 143.089844 95.507812 144.328125 95.078125 145.613281 C 95.054688 145.65625 95.035156 145.714844 95.035156 145.753906 C 95.148438 145.894531 95.265625 146.007812 95.367188 146.226562 C 96.632812 149.105469 102.5625 149.515625 105.265625 150.199219 C 108.902344 151.144531 112.761719 152.332031 116.5 152.765625 C 118.980469 153.035156 119 156.960938 116.5 156.6875 C 110.589844 156.023438 105.054688 153.429688 99.214844 152.664062 C 97.335938 152.433594 95.226562 151.667969 93.679688 150.382812 C 91.296875 159.683594 90.496094 169.492188 88.40625 178.832031 C 86.574219 186.941406 85.351562 194.933594 84.625 203.191406 C 84.175781 208.289062 82.042969 213.601562 81.964844 218.75 C 81.84375 228.265625 79.984375 238.703125 76.507812 247.574219 C 90.203125 255.882812 107.082031 259.109375 122.558594 262.339844 C 130.648438 264.027344 137.671875 265.375 145.949219 265.375 C 153.515625 265.375 161.113281 265.375 168.679688 265.375 C 184.996094 265.375 202.429688 265.980469 218.539062 263.082031 C 232.976562 260.476562 247.183594 257.109375 261.421875 253.707031 C 268.074219 252.101562 274.636719 249.496094 281.308594 248.136719 Z M 304.941406 249.925781 C 303.605469 247.753906 302.257812 245.59375 300.691406 243.519531 C 289.40625 250.28125 277.652344 253.820312 264.828125 256.917969 C 248.59375 260.808594 232.464844 264.792969 215.914062 267.234375 C 199.367188 269.660156 181.960938 268.976562 165.28125 268.976562 C 156.449219 268.976562 147.589844 268.785156 138.765625 269.035156 C 131.84375 269.257812 125.582031 266.570312 118.832031 265.394531 C 114.640625 264.671875 109.867188 264.460938 105.867188 263.023438 C 101.648438 261.535156 97.207031 258.96875 92.824219 258.152344 C 86.363281 256.917969 80.316406 254.402344 74.730469 251.042969 C 74.589844 251.125 74.449219 251.195312 74.296875 251.273438 C 72.589844 251.980469 70.972656 252.824219 69.402344 253.71875 C 73.90625 255.367188 77.773438 258.304688 82.375 259.914062 C 87.109375 261.574219 91.628906 263.636719 96.5625 264.652344 C 107.183594 266.863281 117.613281 270.726562 128.566406 271.226562 C 151.015625 272.285156 173.550781 273.996094 196.070312 273.191406 C 215.050781 272.503906 233.058594 265.042969 251.835938 263.394531 C 258.589844 262.8125 266.316406 262.378906 272.839844 260.207031 C 276.605469 258.949219 280.675781 257.066406 284.574219 256.285156 C 291.738281 254.855469 298.050781 251.9375 304.941406 249.925781 Z M 310.660156 258.054688 C 309.304688 256.523438 308.128906 254.914062 307.03125 253.257812 C 306.859375 253.367188 306.699219 253.46875 306.488281 253.546875 C 298.371094 255.859375 290.03125 258.71875 282.03125 261.382812 C 271.441406 264.882812 261.03125 266 250.078125 267.566406 C 230.90625 270.3125 212.21875 277.101562 192.652344 277.101562 C 169.34375 277.101562 145.589844 277.492188 122.449219 274.476562 C 113.234375 273.289062 104.582031 270.234375 95.519531 268.433594 C 89.671875 267.277344 84.316406 264.773438 78.71875 262.75 C 74.257812 261.160156 70.769531 257.914062 66.078125 256.796875 C 65.765625 256.714844 65.503906 256.585938 65.3125 256.425781 C 63.082031 258.035156 60.984375 259.832031 58.972656 261.734375 C 66.910156 268.933594 76.386719 271.269531 86.636719 273.480469 C 99.085938 276.167969 110.570312 279.042969 123.382812 279.929688 C 133.601562 280.632812 143.769531 282.554688 154.007812 283.316406 C 166.097656 284.191406 178.074219 284.019531 190.203125 284.332031 C 213.351562 284.9375 237.359375 280.84375 259.785156 275.230469 C 269.25 272.835938 279.230469 271.328125 288.019531 266.925781 C 295.195312 263.34375 303.746094 262.238281 310.660156 258.054688 Z M 320.042969 266.570312 C 317.832031 264.730469 315.625 262.871094 313.511719 260.910156 C 305.976562 265.980469 295.527344 269.078125 286.925781 271.820312 C 277.019531 274.96875 267.652344 277.203125 257.414062 279.535156 C 234.050781 284.824219 211.261719 288.203125 187.269531 288.203125 C 161.445312 288.203125 136.042969 285.902344 110.429688 282.90625 C 104.601562 282.222656 99.457031 280.117188 93.800781 279.003906 C 88.285156 277.886719 82.476562 277.28125 77.050781 275.773438 C 69.515625 273.683594 62.066406 269.839844 56.210938 264.488281 C 54.492188 266.308594 52.8125 268.191406 51.1875 270.113281 C 54.179688 274.386719 63.90625 277.222656 68.347656 279.0625 C 74.195312 281.476562 79.964844 283.628906 86.152344 285.136719 C 97.828125 287.992188 109.726562 289.835938 121.722656 290.820312 C 143.75 292.601562 165.746094 295.0625 187.910156 294.964844 C 210.550781 294.871094 234.65625 292.460938 256.851562 287.601562 C 267.824219 285.21875 278.644531 283.035156 289.46875 279.847656 C 300.671875 276.578125 309.796875 271.699219 320.042969 266.570312 Z M 330.242188 275.460938 C 327.972656 273.25 325.601562 271.1875 323.199219 269.195312 C 323.039062 269.367188 322.867188 269.527344 322.605469 269.660156 C 311.59375 275.171875 302.398438 280.140625 290.503906 283.628906 C 277.761719 287.371094 265.140625 290.476562 252.039062 292.378906 C 226.929688 295.988281 202.570312 299.507812 177.140625 298.746094 C 152.984375 298.019531 129.179688 294.570312 105.15625 292.972656 C 93.921875 292.226562 78.949219 289.03125 68.972656 283.769531 C 63.0625 280.652344 52.984375 278.890625 48.5625 273.25 C 46.90625 275.28125 45.277344 277.304688 43.628906 279.292969 C 55.09375 286.234375 66.367188 293.96875 79.851562 296.429688 C 91.296875 298.511719 102.785156 302.839844 114.519531 302.980469 C 140 303.269531 165.683594 305.734375 191.167969 304.71875 C 204.058594 304.226562 217.03125 302.625 229.710938 300.523438 C 241.941406 298.492188 254.75 299.527344 266.628906 295.726562 C 278.253906 292.027344 289.449219 290.417969 301.285156 287.78125 C 307.363281 286.40625 313.121094 283.839844 318.988281 281.707031 C 323.097656 280.21875 326.382812 277.433594 330.242188 275.460938 Z M 328.382812 289.773438 C 328.34375 289.792969 338.160156 282.84375 337.597656 282.390625 C 335.949219 281.175781 334.523438 279.808594 333.117188 278.378906 C 327.730469 280.589844 323.429688 284.121094 317.894531 286.171875 C 311.535156 288.527344 305.566406 290.660156 298.992188 292.359375 C 292.550781 294.046875 285.800781 293.828125 279.429688 295.636719 C 273.480469 297.316406 267.804688 299.859375 261.734375 301.097656 C 255.375 302.367188 249.113281 302.152344 242.722656 302.898438 C 235.417969 303.761719 228.265625 305.363281 221.039062 306.410156 C 215.976562 307.140625 211.023438 306.953125 205.917969 307.140625 C 199.828125 307.382812 194.0625 308.8125 187.929688 308.601562 C 173.902344 308.148438 159.816406 307.777344 145.808594 307.777344 C 138.605469 307.777344 131.5625 306.699219 124.347656 306.832031 C 118.789062 306.929688 112.992188 307.285156 107.476562 306.328125 C 95.929688 304.285156 84.835938 301.703125 73.59375 298.574219 C 61.554688 295.226562 51.769531 288.777344 41.167969 282.371094 C 41.148438 282.371094 41.128906 282.351562 41.109375 282.332031 C 40.714844 282.804688 40.324219 283.277344 39.933594 283.730469 C 35.472656 288.9375 41.992188 290.839844 45.738281 293.242188 C 48.976562 295.296875 51.929688 297.75 55.113281 299.800781 C 61.847656 304.117188 71.019531 307.324219 78.867188 308.914062 C 97.699219 312.734375 116.691406 315.800781 135.609375 318.980469 C 147.238281 320.910156 160.148438 319.875 171.925781 319.875 C 181.652344 319.875 191.5 320.328125 201.203125 319.855469 C 219.882812 318.941406 238.300781 315.78125 256.890625 314 C 265.886719 313.136719 274.90625 310.140625 283.929688 308.851562 C 291.828125 307.714844 298.289062 304.054688 305.804688 301.863281 C 309.542969 300.785156 313.179688 299.609375 316.859375 298.414062 C 321.730469 296.804688 324.527344 292.769531 328.382812 289.773438 Z M 341.335938 280.300781 C 343.980469 285.21875 336.664062 288.597656 333.429688 291.242188 C 327.621094 295.988281 322.15625 301.492188 314.648438 303.480469 C 304.511719 306.1875 295.355469 310.984375 284.964844 312.632812 C 275.570312 314.101562 266.296875 317.019531 256.890625 317.914062 C 234.675781 320.035156 212.839844 323.796875 190.421875 323.796875 C 164.941406 323.796875 139.367188 324.953125 114.347656 319.484375 C 103.214844 317.039062 91.921875 315.550781 80.746094 313.277344 C 72.769531 311.667969 62.652344 309.304688 55.6875 304.820312 C 48.792969 300.375 40.523438 296.058594 34.355469 290.679688 C 31.25 287.953125 35.300781 282.90625 37.179688 280.964844 C 43.296875 274.597656 47.40625 266.511719 54.21875 260.808594 C 59.636719 256.285156 65.707031 251.003906 72.175781 248.007812 C 72.195312 247.964844 72.195312 247.925781 72.21875 247.886719 C 77.191406 236.039062 78.988281 221.035156 79.402344 208.289062 C 79.894531 193.207031 85.078125 177.835938 87.539062 163.011719 C 88.574219 156.777344 89.296875 150.59375 91.296875 144.578125 C 91.800781 143.050781 92.3125 138.375 94 137.378906 C 94.445312 137.078125 94.996094 134.710938 95.578125 134.089844 C 96.964844 132.609375 98.753906 131.757812 100.511719 130.832031 C 106.320312 127.792969 113.855469 126.777344 120.21875 125.410156 C 134.574219 122.332031 150.210938 121.277344 164.871094 121.46875 C 180.757812 121.667969 196.371094 117.867188 212.378906 118.824219 C 220.023438 119.273438 227.300781 119.828125 234.875 120.785156 C 242.421875 121.730469 249.394531 124.214844 257.042969 124.9375 C 263.894531 125.582031 270.253906 128.265625 273.984375 133.726562 C 274.414062 133.929688 274.765625 134.320312 274.90625 134.945312 C 274.96875 135.207031 275.070312 135.457031 275.140625 135.707031 C 275.402344 136.203125 275.671875 136.695312 275.882812 137.238281 C 276.042969 137.628906 276.042969 137.960938 275.964844 138.253906 C 278.152344 143.976562 282.121094 149.324219 284.375 154.867188 C 287.015625 161.382812 287.386719 169.359375 288.441406 176.1875 C 289.597656 183.53125 292.261719 190.679688 293.828125 197.941406 C 295.214844 204.347656 295.355469 211.679688 297.335938 217.867188 C 298.269531 220.820312 304.058594 234.21875 303.125 240.292969 C 306.269531 244.375 308.207031 249.214844 311.511719 253.214844 C 314.398438 256.65625 318.125 258.71875 321.378906 261.695312 C 325.78125 265.789062 330.082031 269.738281 334.332031 274.015625 C 336.210938 275.914062 340.101562 278.046875 341.335938 280.300781 " fill-opacity="1" fill-rule="nonzero"/><path fill="#000000" d="M 293.578125 235.644531 L 293.578125 236 C 293.578125 235.9375 293.558594 235.898438 293.558594 235.847656 C 293.558594 235.785156 293.578125 235.726562 293.578125 235.644531 " fill-opacity="1" fill-rule="nonzero"/><path fill="#000000" d="M 293.257812 234.039062 C 293.539062 234.46875 293.539062 235.375 293.558594 235.847656 C 293.457031 237.253906 292.363281 238 291.125 237.347656 C 288.855469 236.140625 287.507812 234.238281 285.417969 232.769531 C 283.359375 231.34375 285.058594 227.933594 287.136719 229.402344 C 288.785156 230.558594 290.152344 231.945312 291.738281 233.101562 C 292.199219 233.414062 292.964844 233.535156 293.257812 234.039062 " fill-opacity="1" fill-rule="nonzero"/><path fill="#000000" d="M 291.949219 223.527344 C 294.140625 224.773438 292.160156 228.164062 289.96875 226.898438 C 289.578125 226.65625 289.054688 226.402344 288.542969 226.113281 C 287.609375 225.558594 286.726562 224.855469 286.726562 223.898438 C 286.726562 222.894531 287.628906 221.835938 288.683594 221.9375 C 289.488281 222.019531 290.171875 222.210938 290.835938 222.664062 C 291.246094 222.933594 291.636719 223.328125 291.949219 223.527344 " fill-opacity="1" fill-rule="nonzero"/><path fill="#000000" d="M 290.070312 238.503906 C 290.914062 239.175781 290.753906 240.605469 290.070312 241.289062 C 289.246094 242.113281 288.132812 241.933594 287.289062 241.289062 C 286.230469 240.445312 285.277344 238.855469 283.929688 238.523438 C 281.480469 237.898438 282.515625 234.117188 284.964844 234.742188 C 287.15625 235.292969 288.394531 237.195312 290.070312 238.503906 " fill-opacity="1" fill-rule="nonzero"/><path fill="#000000" d="M 278.898438 175.542969 C 281.148438 176.703125 279.167969 180.089844 276.9375 178.914062 C 275.671875 178.269531 274.535156 177.222656 273.167969 176.832031 C 270.738281 176.128906 271.773438 172.347656 274.203125 173.0625 C 275.921875 173.542969 277.328125 174.71875 278.898438 175.542969 " fill-opacity="1" fill-rule="nonzero"/><path fill="#000000" d="M 277.140625 167.832031 C 279.582031 168.453125 278.546875 172.234375 276.105469 171.613281 C 275.078125 171.351562 274.085938 171.039062 273.027344 171.019531 C 270.507812 170.957031 270.507812 167.046875 273.027344 167.105469 C 274.4375 167.136719 275.773438 167.480469 277.140625 167.832031 " fill-opacity="1" fill-rule="nonzero"/><path fill="#000000" d="M 275.652344 161.503906 C 277.902344 162.621094 275.921875 166.011719 273.671875 164.894531 C 273.378906 164.734375 273.050781 164.523438 272.699219 164.503906 C 271.640625 164.421875 270.738281 163.675781 270.738281 162.539062 C 270.738281 161.546875 271.640625 160.507812 272.699219 160.578125 C 273.792969 160.660156 274.667969 161.011719 275.652344 161.503906 " fill-opacity="1" fill-rule="nonzero"/><path fill="#000000" d="M 253.265625 147.285156 C 255.734375 146.933594 256.8125 150.714844 254.308594 151.066406 C 249.605469 151.710938 245.105469 154.023438 240.414062 154.292969 C 235.789062 154.566406 231.117188 156.023438 226.597656 156.9375 C 224.136719 157.433594 223.078125 153.652344 225.542969 153.15625 C 229.902344 152.28125 234.382812 150.734375 238.785156 150.472656 C 243.738281 150.179688 248.359375 147.96875 253.265625 147.285156 " fill-opacity="1" fill-rule="nonzero"/><path fill="#000000" d="M 215.273438 154.453125 C 217.753906 154.0625 218.96875 157.835938 216.476562 158.238281 C 199.496094 161.011719 164.4375 159.9375 164.4375 159.9375 C 162.480469 159.9375 162.480469 156.023438 164.4375 156.023438 C 182.042969 156.023438 198.714844 157.171875 215.273438 154.453125 " fill-opacity="1" fill-rule="nonzero"/><path fill="#000000" d="M 216.035156 256.132812 C 217.734375 257.992188 214.972656 260.769531 213.273438 258.910156 C 212.527344 258.09375 212.136719 257.1875 211.664062 256.234375 C 211.203125 255.269531 211.394531 254.109375 212.378906 253.546875 C 213.234375 253.035156 214.589844 253.296875 215.03125 254.253906 C 215.34375 254.875 215.582031 255.621094 216.035156 256.132812 " fill-opacity="1" fill-rule="nonzero"/><path fill="#000000" d="M 210.148438 257.832031 C 211.261719 260.085938 207.898438 262.085938 206.78125 259.8125 C 205.9375 258.113281 205.316406 256.253906 203.828125 254.996094 C 203.003906 254.292969 203.113281 252.925781 203.828125 252.210938 C 204.621094 251.414062 205.757812 251.527344 206.582031 252.210938 C 208.339844 253.707031 209.164062 255.820312 210.148438 257.832031 " fill-opacity="1" fill-rule="nonzero"/><path fill="#000000" d="M 202.652344 256.855469 C 204.019531 258.988281 200.613281 260.96875 199.265625 258.839844 C 198.972656 258.367188 198.714844 257.894531 198.460938 257.410156 C 198.210938 256.976562 197.878906 256.636719 197.636719 256.234375 C 197.496094 255.992188 197.445312 255.882812 197.425781 255.800781 C 197.40625 255.78125 197.40625 255.78125 197.386719 255.761719 C 197.328125 255.660156 197.265625 255.601562 197.164062 255.601562 C 196.761719 255.308594 196.371094 255.015625 196 254.664062 C 194.140625 252.953125 196.894531 250.199219 198.753906 251.898438 C 199.183594 252.289062 199.726562 252.574219 200.140625 252.996094 C 200.480469 253.347656 200.710938 253.71875 200.921875 254.109375 C 201.617188 254.957031 202.058594 255.941406 202.652344 256.855469 " fill-opacity="1" fill-rule="nonzero"/><path fill="#000000" d="M 195.488281 257.773438 C 197.226562 259.621094 194.453125 262.378906 192.722656 260.539062 C 191.980469 259.734375 191.5 258.464844 190.515625 257.914062 C 188.304688 256.675781 190.28125 253.296875 192.492188 254.523438 C 193.898438 255.308594 194.453125 256.636719 195.488281 257.773438 " fill-opacity="1" fill-rule="nonzero"/><path fill="#000000" d="M 157.253906 156.355469 C 159.777344 156.367188 159.777344 160.289062 157.253906 160.269531 C 146.492188 160.207031 135.417969 158.78125 124.65625 157.976562 C 122.15625 157.804688 122.136719 153.882812 124.65625 154.0625 C 135.378906 154.867188 146.53125 156.296875 157.253906 156.355469 " fill-opacity="1" fill-rule="nonzero"/><path fill="#000000" d="M 102.078125 249.617188 C 103.859375 247.824219 106.613281 250.589844 104.832031 252.371094 C 104.742188 252.492188 104.621094 252.601562 104.5 252.703125 C 102.722656 254.484375 99.960938 251.726562 101.75 249.949219 C 101.859375 249.828125 101.960938 249.726562 102.078125 249.617188 " fill-opacity="1" fill-rule="nonzero"/><path fill="#000000" d="M 100.53125 170.957031 C 101.375 171.613281 101.820312 172.648438 101.234375 173.644531 C 100.742188 174.488281 99.417969 174.992188 98.554688 174.347656 C 97.308594 173.414062 96.03125 172.46875 94.644531 171.742188 C 92.394531 170.566406 94.394531 167.199219 96.625 168.355469 C 98.011719 169.078125 99.277344 170.023438 100.53125 170.957031 " fill-opacity="1" fill-rule="nonzero"/><path fill="#000000" d="M 99.871094 161.835938 C 102.140625 162.953125 100.160156 166.324219 97.910156 165.207031 C 97.597656 165.066406 97.265625 164.855469 96.933594 164.835938 C 95.871094 164.734375 94.976562 163.988281 94.976562 162.871094 C 94.976562 161.855469 95.871094 160.820312 96.933594 160.910156 C 98.011719 160.992188 98.90625 161.34375 99.871094 161.835938 " fill-opacity="1" fill-rule="nonzero"/><path fill="#000000" d="M 99.609375 244.0625 C 100.300781 244.757812 100.472656 246.1875 99.609375 246.828125 C 99.125 247.222656 99.214844 247.714844 99.214844 248.378906 C 99.207031 250.902344 95.289062 250.902344 95.308594 248.378906 C 95.308594 246.808594 95.519531 245.089844 96.855469 244.0625 C 97.699219 243.398438 98.792969 243.25 99.609375 244.0625 " fill-opacity="1" fill-rule="nonzero"/><path fill="#000000" d="M 98.882812 179.125 C 99.890625 179.539062 100.082031 180.964844 99.589844 181.808594 C 99.003906 182.804688 97.910156 182.925781 96.933594 182.515625 C 95.207031 181.789062 93.738281 180.613281 92.042969 179.890625 C 91.035156 179.476562 90.847656 178.050781 91.339844 177.203125 C 91.921875 176.207031 93.015625 176.097656 94 176.519531 C 95.71875 177.246094 97.1875 178.402344 98.882812 179.125 " fill-opacity="1" fill-rule="nonzero"/><path fill="#000000" d="M 96.625 183.691406 C 97.496094 184.292969 97.890625 185.390625 97.328125 186.375 C 96.816406 187.242188 95.519531 187.683594 94.644531 187.082031 C 93.738281 186.457031 92.90625 185.632812 91.839844 185.320312 C 89.4375 184.617188 90.453125 180.835938 92.886719 181.539062 C 94.332031 181.972656 95.40625 182.847656 96.625 183.691406 " fill-opacity="1" fill-rule="nonzero"/><path fill="#000000" d="M 93.199219 200.042969 C 93.21875 198.675781 92.996094 197.480469 92.351562 196.261719 C 91.648438 194.933594 91.507812 196.222656 91.320312 197.027344 C 90.886719 198.695312 90.003906 203.453125 91.550781 204.71875 C 92.121094 205.191406 93.199219 200.597656 93.199219 200.042969 Z M 95.738281 194.292969 C 97.597656 198.0625 97.769531 203.371094 94.957031 206.824219 C 92.605469 209.71875 88.554688 208.792969 87.5 205.273438 C 86.617188 202.355469 86.777344 198.90625 87.539062 195.992188 C 88.03125 194.007812 88.945312 191.386719 91.390625 191.285156 C 93.507812 191.195312 94.835938 192.460938 95.738281 194.292969 " fill-opacity="1" fill-rule="nonzero"/><path fill="#000000" d="M 92.5625 239.640625 C 93.640625 239.929688 94.132812 240.996094 93.921875 242.050781 C 93.589844 243.914062 92.683594 245.53125 91.960938 247.261719 C 91.570312 248.257812 90.695312 248.941406 89.558594 248.628906 C 88.636719 248.378906 87.792969 247.222656 88.203125 246.226562 C 88.90625 244.496094 89.8125 242.855469 90.164062 241.015625 C 90.355469 239.960938 91.589844 239.367188 92.5625 239.640625 " fill-opacity="1" fill-rule="nonzero"/><path fill="#000000" d="M 83.238281 237.296875 C 83.308594 234.761719 87.230469 234.761719 87.148438 237.296875 C 87.089844 239.367188 86.816406 241.429688 86.304688 243.441406 C 85.953125 244.847656 85.390625 246.6875 83.761719 247 C 81.472656 247.453125 80.457031 244.304688 82.234375 243.421875 C 82.253906 243.398438 82.253906 243.378906 82.273438 243.339844 C 82.335938 243.148438 82.394531 242.925781 82.457031 242.714844 C 82.566406 242.222656 82.667969 241.742188 82.808594 241.226562 C 83.140625 239.992188 83.199219 238.5625 83.238281 237.296875 " fill-opacity="1" fill-rule="nonzero"/></svg>