<svg xmlns="http://www.w3.org/2000/svg" xmlns:xlink="http://www.w3.org/1999/xlink" width="500" zoomAndPan="magnify" viewBox="0 0 375 374.999991" height="500" preserveAspectRatio="xMidYMid meet" version="1.0"><defs><clipPath id="5718eb4e4f"><path d="M 99 79 L 347.511719 79 L 347.511719 245 L 99 245 Z M 99 79 " clip-rule="nonzero"/></clipPath></defs><path fill="#000000" d="M 106.011719 200.277344 C 88.5 217.09375 73.90625 230.847656 61.46875 242.1875 C 48.941406 253.472656 36.671875 261.78125 31.996094 267.648438 C 27.347656 273.320312 31.484375 274.144531 34.007812 276.695312 C 36.472656 279.21875 40.355469 279.8125 47.070312 283.074219 C 53.789062 286.25 64.753906 291.296875 74.191406 295.804688 C 83.570312 300.230469 90.625 305.246094 103.011719 309.871094 C 115.394531 314.546875 133.699219 320.585938 147.867188 323.28125 C 161.921875 325.859375 173.089844 326.570312 187.058594 325.292969 C 201.03125 323.875 217.183594 322.742188 230.925781 315.226562 C 244.527344 307.542969 255.835938 295.265625 268.445312 280.378906 C 281.027344 265.464844 293.351562 247.886719 305.964844 226.761719 C 239.3125 217.945312 172.667969 209.125 106.011719 200.277344 Z M 106.011719 200.277344 " fill-opacity="1" fill-rule="evenodd"/><path fill="#ffffff" d="M 109.808594 198.917969 C 92.296875 215.757812 77.703125 229.425781 65.261719 240.796875 C 52.738281 252.082031 40.46875 260.390625 35.792969 266.257812 C 31.144531 271.929688 35.28125 272.75 37.804688 275.304688 C 40.214844 277.828125 44.152344 278.421875 50.839844 281.683594 C 57.613281 284.859375 68.550781 289.90625 77.988281 294.414062 C 87.308594 298.894531 94.394531 303.886719 106.777344 308.507812 C 119.132812 313.074219 137.410156 319.679688 151.664062 321.890625 C 165.863281 323.933594 177.820312 323.449219 191.367188 321.324219 C 204.855469 319.167969 219.050781 316.898438 231.886719 309.273438 C 244.554688 301.445312 255.691406 289.167969 267.28125 275.617188 C 278.871094 262.089844 289.867188 246.722656 300.917969 228.859375 L 109.8125 198.917969 Z M 109.808594 198.917969 " fill-opacity="1" fill-rule="evenodd"/><path fill="#000000" d="M 116.074219 248.199219 C 128.058594 251.34375 138.773438 253.246094 148.546875 253.898438 C 158.269531 254.4375 165.691406 253.867188 174.335938 251.882812 C 182.921875 249.898438 191.253906 246.667969 199.78125 242.1875 C 193.664062 247.460938 186.4375 251.144531 177.679688 253.554688 C 168.808594 255.882812 157.929688 257.074219 147.554688 256.25 C 137.183594 255.285156 126.839844 252.707031 116.074219 248.199219 Z M 116.074219 248.199219 " fill-opacity="1" fill-rule="evenodd"/><path fill="#000000" d="M 119.078125 257.246094 C 127.039062 259.886719 135.683594 261.53125 145.542969 262.296875 C 155.378906 263.03125 167.25 263.828125 177.679688 261.613281 C 188.050781 259.289062 197.65625 255.007812 207.148438 248.542969 C 196.863281 253.988281 186.40625 257.671875 175.355469 259.601562 C 164.191406 261.386719 150.644531 260.367188 141.179688 259.941406 C 131.714844 259.488281 124.460938 258.695312 119.078125 257.246094 Z M 119.078125 257.246094 " fill-opacity="1" fill-rule="evenodd"/><path fill="#000000" d="M 93.628906 257.246094 C 99.582031 260.339844 107.515625 262.945312 117.746094 265.300781 C 127.917969 267.570312 141.691406 271 154.585938 271 C 167.476562 270.886719 181.929688 269.242188 194.425781 264.960938 C 206.867188 260.566406 218.003906 254.15625 228.601562 245.199219 C 216.671875 252.683594 205.875 258.128906 195.757812 261.953125 C 185.558594 265.667969 177.933594 266.660156 168.300781 267.652344 C 158.550781 268.5625 150.703125 269.328125 138.175781 267.652344 C 125.59375 265.867188 111 262.4375 93.628906 257.246094 Z M 93.628906 257.246094 " fill-opacity="1" fill-rule="evenodd"/><path fill="#000000" d="M 98.304688 267.3125 C 104.257812 270.40625 112.191406 273.011719 122.421875 275.367188 C 132.59375 277.636719 146.367188 281.066406 159.261719 281.066406 C 172.097656 280.953125 186.664062 279.308594 199.128906 275.027344 C 211.570312 270.632812 222.734375 264.222656 233.277344 255.261719 C 221.289062 262.75 210.605469 268.191406 200.460938 272.019531 C 190.261719 275.679688 182.636719 276.726562 173.003906 277.691406 C 163.285156 278.597656 155.347656 279.363281 142.851562 277.691406 C 130.183594 275.878906 115.734375 272.53125 98.304688 267.3125 Z M 98.304688 267.3125 " fill-opacity="1" fill-rule="evenodd"/><path fill="#000000" d="M 93.96875 272.332031 C 102.78125 276.753906 112.53125 280.296875 123.753906 283.078125 C 134.917969 285.773438 147.667969 288.804688 160.589844 288.777344 C 173.398438 288.664062 185.925781 288.4375 200.460938 282.738281 C 215.054688 276.953125 230.386719 267.679688 247.332031 254.582031 C 235.574219 262.71875 224.777344 269.269531 214.179688 274.34375 C 203.636719 279.335938 196.042969 282.878906 184.394531 284.75 C 172.578125 286.621094 159.316406 287.386719 144.183594 285.402344 C 128.910156 283.277344 112.53125 279.023438 93.96875 272.332031 Z M 93.96875 272.332031 " fill-opacity="1" fill-rule="evenodd"/><path fill="#000000" d="M 84.589844 277.378906 C 98.136719 284.867188 110.972656 290.308594 123.753906 294.136719 C 136.390625 297.878906 147.753906 299.777344 160.589844 299.835938 C 173.484375 299.808594 185.867188 299.4375 200.460938 293.796875 C 214.941406 287.898438 230.246094 278.65625 247.019531 265.300781 C 234.667969 274.203125 222.707031 281.207031 210.496094 286.421875 C 198.222656 291.667969 187.484375 295.128906 174.335938 296.460938 C 161.101562 297.652344 147.214844 296.914062 132.140625 293.796875 C 117.09375 290.59375 101.394531 285.121094 84.589844 277.378906 Z M 84.589844 277.378906 " fill-opacity="1" fill-rule="evenodd"/><path fill="#ffffff" d="M 106.863281 206.515625 C 98.105469 212.214844 64.328125 245.644531 52.851562 255.964844 C 41.460938 266.003906 40.949219 264.078125 38.855469 267.023438 C 36.699219 269.832031 36.757812 270.796875 40.242188 273.207031 C 43.699219 275.589844 52.652344 278.765625 59.566406 281.429688 C 66.453125 283.953125 79.066406 291.4375 81.332031 288.800781 C 83.398438 286.023438 69.855469 271.648438 72.292969 265.691406 C 74.730469 259.765625 91.902344 258.546875 95.726562 253.613281 C 99.355469 248.539062 93.007812 241.050781 94.394531 235.863281 C 95.785156 230.675781 101.933594 227.695312 104.085938 222.792969 C 106.183594 217.773438 115.308594 201.042969 106.863281 206.515625 Z M 106.863281 206.515625 " fill-opacity="1" fill-rule="evenodd"/><g clip-path="url(#5718eb4e4f)"><path fill="#000000" d="M 99.664062 206.320312 C 99.664062 206.320312 104.339844 210.175781 113.382812 213.039062 C 122.476562 215.902344 140.613281 220.410156 153.5625 223.417969 C 166.515625 226.394531 177.339844 228.464844 190.402344 230.789062 C 203.46875 233.085938 215.90625 235.070312 231.265625 237.140625 C 246.652344 239.238281 265.554688 242.046875 281.847656 243.179688 C 298.113281 244.3125 317.867188 245.363281 328.066406 243.859375 C 338.125 242.328125 338.863281 243.917969 342.121094 234.132812 C 345.382812 224.210938 347.507812 200.617188 347.480469 185.222656 C 347.394531 169.824219 345.324219 152.613281 341.78125 142.664062 C 338.210938 132.765625 330.675781 131.6875 326.394531 126.246094 C 322.117188 120.773438 322.3125 115.894531 316.335938 110.140625 C 310.269531 104.382812 299.984375 96.898438 290.546875 92.050781 C 281.082031 87.230469 270.429688 83.484375 260.058594 81.332031 C 249.714844 79.203125 241.242188 79.375 228.914062 79.316406 C 216.558594 79.261719 199.527344 78.636719 186.71875 80.992188 C 173.96875 83.371094 160.960938 89.382812 152.914062 93.382812 C 144.894531 97.378906 143.222656 100.726562 138.828125 104.78125 C 134.4375 108.835938 130.953125 108.722656 126.785156 117.511719 C 122.621094 126.414062 118.625 142.464844 114.0625 157.40625 C 109.472656 172.351562 99.664062 206.320312 99.664062 206.320312 Z M 99.664062 206.320312 " fill-opacity="1" fill-rule="evenodd"/></g><path fill="#ffffff" d="M 103.09375 204.816406 C 103.09375 204.816406 110.886719 208.472656 119.925781 211.335938 C 129.023438 214.230469 145.429688 218.992188 158.382812 221.996094 C 171.332031 224.945312 185.867188 226.902344 198.902344 229.199219 C 211.96875 231.527344 225.117188 234.332031 240.476562 236.429688 C 255.863281 238.5 270.910156 240.089844 287.203125 241.25 C 303.46875 242.355469 311.6875 242.753906 321.886719 241.25 C 331.949219 239.71875 334.753906 244.511719 338.011719 234.703125 C 341.269531 224.777344 344.246094 200.960938 344.21875 185.5625 C 344.132812 170.167969 343.625 153.578125 340.082031 143.625 C 336.511719 133.757812 326.847656 131.574219 322.570312 126.101562 C 318.289062 120.628906 321.011719 119.128906 315.003906 113.398438 C 308.964844 107.644531 299.730469 101.066406 290.292969 96.21875 C 280.796875 91.367188 272.808594 86.320312 262.464844 84.167969 C 252.09375 82.039062 243.164062 82.523438 230.867188 82.464844 C 218.511719 82.410156 203.464844 80.453125 190.683594 82.804688 C 177.90625 85.1875 164.074219 90.773438 156 94.769531 C 147.980469 98.769531 146.308594 102.113281 141.914062 106.167969 C 137.523438 110.195312 134.039062 110.082031 129.871094 118.902344 C 125.707031 127.777344 121.710938 143.824219 117.148438 158.769531 C 112.558594 173.738281 103.09375 204.816406 103.09375 204.816406 Z M 103.09375 204.816406 " fill-opacity="1" fill-rule="evenodd"/><path fill="#000000" d="M 134.835938 218.710938 C 134.75 213.351562 136.082031 205.863281 138.832031 195.941406 C 141.550781 185.929688 146.964844 169.316406 151.242188 159.417969 C 155.523438 149.4375 160.054688 143.738281 163.96875 136.964844 C 167.707031 130.1875 169.40625 124.882812 174 118.871094 C 178.589844 112.632812 185.558594 105.800781 191.425781 100.441406 C 197.148438 95.027344 201.316406 90.121094 208.515625 87.03125 C 215.769531 83.941406 231.355469 82.890625 234.273438 82.011719 C 236.910156 80.992188 228.945312 81.019531 224.921875 81.332031 C 220.726562 81.644531 214.324219 82.464844 210.1875 83.683594 C 206.105469 84.675781 204.035156 85.753906 200.804688 88.023438 C 197.433594 90.292969 193.863281 94.515625 190.746094 97.410156 C 187.65625 100.214844 185.164062 102.199219 182.386719 105.121094 C 179.523438 107.957031 176.945312 110.792969 174 114.847656 C 171.023438 118.902344 168.84375 122.105469 164.621094 129.589844 C 160.226562 137.105469 152.347656 150.148438 148.210938 159.417969 C 144.019531 168.523438 142.65625 174.304688 139.851562 184.203125 C 136.992188 194.125 134.296875 205.269531 131.464844 218.398438 C 132.570312 218.484375 133.703125 218.597656 134.835938 218.710938 Z M 134.835938 218.710938 " fill-opacity="1" fill-rule="evenodd"/><path fill="#000000" d="M 247.699219 81.417969 C 258.949219 89.386719 267.648438 96.503906 274.136719 103.109375 C 280.515625 109.660156 283.175781 112.042969 286.179688 120.546875 C 289.128906 128.996094 291.652344 141.730469 291.875 153.382812 C 292.046875 164.867188 290.089844 174.59375 287.203125 189.5625 C 284.199219 204.589844 279.917969 222.058594 274.136719 242.839844 L 277.820312 242.839844 C 279.605469 234.277344 281.617188 225.375 283.859375 215.707031 C 286.097656 205.953125 289.46875 195.832031 291.226562 185.226562 C 292.898438 174.480469 293.746094 161.125 293.890625 152.363281 C 293.890625 143.601562 293.210938 140.339844 291.539062 133.28125 C 289.78125 126.050781 288.277344 117.203125 283.859375 110.144531 C 279.296875 103.082031 271.21875 96.21875 265.097656 91.398438 C 259.035156 86.578125 253.308594 83.289062 247.699219 81.417969 Z M 247.699219 81.417969 " fill-opacity="1" fill-rule="evenodd"/><path fill="#ffffff" d="M 187.054688 107.136719 C 191.390625 101.917969 197.34375 97.523438 200.96875 94.832031 C 204.539062 92.164062 204 92.476562 208.535156 91.058594 C 213.011719 89.5 222.195312 86.722656 227.777344 85.898438 C 233.273438 85.019531 237.808594 86.011719 241.492188 86.238281 C 245.0625 86.410156 247.101562 85.984375 249.679688 87.035156 C 252.175781 87.996094 254.386719 90.519531 256.964844 92.421875 C 259.542969 94.207031 262.292969 96.023438 265.097656 98.09375 C 267.875 100.132812 270.992188 101.636719 273.457031 104.785156 C 275.835938 107.816406 282.808594 115.191406 279.492188 116.523438 C 276.007812 117.683594 258.296875 111.644531 253.023438 112.496094 C 247.753906 113.433594 251.691406 123.042969 248.007812 121.882812 C 244.15625 120.492188 237.550781 105.605469 230.609375 104.785156 C 223.667969 103.988281 213.070312 112.609375 206.808594 116.863281 C 200.515625 121.003906 195.867188 129.367188 193.089844 129.59375 C 190.285156 129.59375 192.921875 118.167969 189.972656 117.515625 C 186.886719 116.949219 175.523438 127.550781 175.011719 125.90625 C 174.585938 124.0625 182.605469 112.410156 187.054688 107.136719 Z M 187.054688 107.136719 " fill-opacity="1" fill-rule="evenodd"/><path fill="#ffffff" d="M 272.070312 90.378906 C 279.378906 92.535156 286.378906 95.710938 293.378906 100.332031 C 300.40625 104.898438 312.988281 115.585938 313.640625 117.515625 C 314.035156 119.246094 298.507812 109.945312 296.242188 111.164062 C 294 112.355469 300.914062 123.242188 300.261719 124.574219 C 299.527344 125.824219 296.804688 124.007812 291.988281 118.902344 C 289.609375 114.847656 286.859375 110.964844 283.855469 107.136719 C 280.796875 103.222656 277.480469 99.539062 273.796875 96.078125 C 269.972656 92.5625 262.09375 87.6875 261.753906 86.691406 C 261.46875 85.726562 264.871094 86.921875 272.070312 90.378906 Z M 272.070312 90.378906 " fill-opacity="1" fill-rule="evenodd"/><path fill="#000000" d="M 225.003906 116.066406 C 224.296875 116.636719 224.070312 117.03125 224.324219 117.910156 C 224.523438 118.789062 224.722656 120.773438 226.335938 121.457031 C 227.894531 122.050781 231.863281 122.109375 233.648438 121.738281 C 235.320312 121.257812 236.539062 120.265625 236.539062 119.1875 C 236.425781 118.082031 234.695312 116.238281 233.335938 115.414062 C 231.890625 114.480469 229.652344 114 228.265625 114.082031 C 226.734375 114.140625 225.683594 115.386719 225.003906 116.066406 Z M 225.003906 116.066406 " fill-opacity="1" fill-rule="evenodd"/><path fill="#ffffff" d="M 228.320312 117.570312 C 228.09375 117.855469 228.402344 118.621094 228.800781 118.988281 C 229.054688 119.214844 229.648438 119.214844 230.160156 119.214844 C 230.613281 119.101562 231.75 118.988281 231.804688 118.648438 C 231.804688 118.253906 230.984375 117.457031 230.414062 117.257812 C 229.734375 117.003906 228.632812 117.289062 228.320312 117.570312 Z M 228.320312 117.570312 " fill-opacity="1" fill-rule="evenodd"/><path fill="#000000" d="M 157.332031 101.664062 C 156.539062 101.949219 156.113281 102.175781 155.519531 103.109375 C 154.8125 103.933594 153.195312 105.886719 153.28125 106.996094 C 153.335938 108.101562 154.640625 109.40625 155.660156 109.6875 C 156.597656 109.859375 157.957031 109.261719 158.863281 108.328125 C 159.769531 107.191406 160.507812 105.152344 160.847656 103.847656 C 161.015625 102.597656 160.703125 101.265625 160.136719 100.953125 C 159.429688 100.5 158.125 101.324219 157.332031 101.664062 Z M 157.332031 101.664062 " fill-opacity="1" fill-rule="evenodd"/><path fill="#ffffff" d="M 157.246094 104.132812 C 156.878906 104.328125 156.28125 105.09375 156.226562 105.550781 C 156.113281 105.890625 156.253906 106.117188 156.539062 106.230469 C 156.707031 106.316406 157.273438 106.542969 157.585938 106.257812 C 157.871094 105.917969 158.238281 104.867188 158.265625 104.527344 C 158.152344 104.132812 157.558594 103.960938 157.246094 104.132812 Z M 157.246094 104.132812 " fill-opacity="1" fill-rule="evenodd"/><path fill="#000000" d="M 314.605469 132.089844 C 314.691406 132.882812 314.75 133.308594 315.429688 134.242188 C 316.050781 135.121094 317.296875 137.21875 318.402344 137.589844 C 319.535156 137.902344 321.039062 136.910156 321.691406 136.144531 C 322.144531 135.265625 322.085938 133.816406 321.40625 132.683594 C 320.671875 131.492188 318.828125 129.960938 317.75 129.394531 C 316.589844 128.855469 315.316406 128.6875 314.804688 129.195312 C 314.296875 129.679688 314.40625 131.152344 314.605469 132.089844 Z M 314.605469 132.089844 " fill-opacity="1" fill-rule="evenodd"/><path fill="#ffffff" d="M 316.929688 132.910156 C 316.898438 133.277344 317.636719 134.042969 317.949219 134.328125 C 318.261719 134.527344 318.429688 134.386719 318.6875 134.242188 C 318.828125 133.988281 319.167969 133.621094 319.054688 133.25 C 318.800781 132.796875 317.949219 132.144531 317.609375 132.058594 C 317.183594 132.03125 316.84375 132.429688 316.929688 132.910156 Z M 316.929688 132.910156 " fill-opacity="1" fill-rule="evenodd"/><path fill="#000000" d="M 236.308594 79.40625 C 236.308594 79.40625 237.074219 75.804688 238.972656 74.925781 C 240.898438 74.046875 244.808594 73.820312 247.613281 74.21875 C 250.390625 74.613281 254.332031 76.03125 255.578125 77.308594 C 256.769531 78.582031 255.917969 80.765625 254.871094 81.757812 C 253.765625 82.722656 252.289062 83.460938 249.171875 83.09375 C 246.027344 82.667969 236.308594 79.40625 236.308594 79.40625 Z M 236.308594 79.40625 " fill-opacity="1" fill-rule="evenodd"/><path fill="#ffffff" d="M 238.410156 76.058594 L 236.878906 78.839844 C 238.242188 79.605469 240.167969 80.226562 242.546875 80.9375 C 244.957031 81.5625 249.007812 82.78125 251.105469 82.753906 C 253.089844 82.609375 254.957031 80.9375 254.535156 80.457031 C 254.023438 79.972656 250.652344 79.859375 248.554688 79.660156 C 246.402344 79.292969 243.679688 79.207031 242.035156 78.640625 C 240.335938 78.015625 239.089844 77.195312 238.410156 76.058594 Z M 238.410156 76.058594 " fill-opacity="1" fill-rule="evenodd"/><path stroke-linecap="butt" transform="matrix(0.787154, 0, 0, 0.787628, 37.866477, 80.393887)" fill-opacity="1" fill="#ffffff" fill-rule="evenodd" stroke-linejoin="miter" d="M 206.351414 3.497272 C 204.872591 2.490492 192.600338 5.515792 184.536282 7.85172 C 176.472226 10.088458 161.13315 14.909101 158.795815 17.03177 C 156.488254 18.941181 170.135118 16.674686 170.566855 20.091787 C 170.745505 23.513848 160.775851 34.603308 160.522763 37.519499 C 160.200201 40.217472 165.559697 39.567776 168.839907 37.088022 C 172.005979 34.528916 175.822139 26.539148 179.747473 22.68561 C 183.454458 18.797355 187.523704 17.140879 191.950251 13.971753 C 196.411535 10.624085 207.467976 4.543728 206.351414 3.497272 Z M 206.351414 3.497272 " stroke="#000000" stroke-width="0.036" stroke-opacity="1" stroke-miterlimit="10"/></svg>