<svg xmlns="http://www.w3.org/2000/svg" xmlns:xlink="http://www.w3.org/1999/xlink" width="500" zoomAndPan="magnify" viewBox="0 0 375 374.999991" height="500" preserveAspectRatio="xMidYMid meet" version="1.0"><defs><clipPath id="6a9ccebfc0"><path d="M 50.160156 99 L 324.660156 99 L 324.660156 337.371094 L 50.160156 337.371094 Z M 50.160156 99 " clip-rule="nonzero"/></clipPath></defs><path fill="#ffffff" d="M 271.285156 200.441406 C 271.285156 200.441406 277.160156 193.117188 286.09375 188.480469 C 295.027344 183.84375 298.246094 180.1875 304.382812 178.101562 C 310.523438 176.011719 316.558594 173.367188 320.183594 173.796875 C 323.808594 174.226562 323.304688 177.46875 322.167969 179.808594 C 321.027344 182.152344 309.636719 195.316406 298.054688 200.441406 C 286.472656 205.566406 273.5625 211.328125 273.5625 211.328125 L 268.816406 210.441406 Z M 271.285156 200.441406 " fill-opacity="1" fill-rule="nonzero"/><path fill="#ffffff" d="M 77.125 214.730469 C 77.125 214.730469 67.808594 211.96875 63.476562 208.953125 C 59.144531 205.9375 53.160156 199.964844 53.160156 199.964844 C 53.160156 199.964844 54.945312 197.339844 55.28125 191.8125 C 55.621094 186.285156 55.535156 177.339844 54.269531 165.019531 C 53.003906 152.699219 51.570312 142.996094 54.605469 135.992188 C 57.644531 128.988281 60.136719 124.316406 64.121094 122.855469 C 68.109375 121.394531 72.496094 120.929688 72.496094 120.929688 C 72.496094 120.929688 73.425781 117.933594 76.378906 117.683594 C 79.332031 117.429688 89.121094 117.429688 98.234375 114.980469 C 107.347656 112.535156 116.019531 108.484375 118.308594 109.917969 C 120.59375 111.351562 117.640625 122.828125 119.667969 127.300781 C 121.691406 131.773438 128.613281 141.226562 141.4375 142.574219 C 154.265625 143.925781 155.53125 145.949219 168.273438 145.78125 C 181.015625 145.613281 187.175781 147.300781 196.792969 143.585938 C 206.414062 139.875 212.066406 137.765625 219.070312 127.722656 C 226.074219 117.683594 230.800781 112.027344 231.308594 108.398438 C 231.8125 104.769531 231.898438 101.480469 231.898438 101.480469 C 231.898438 101.480469 233.246094 104.6875 248.773438 104.6875 C 264.300781 104.6875 274.425781 99.742188 276.707031 103.773438 L 278.140625 104.476562 C 278.140625 104.476562 280.25 103.464844 284.214844 104.222656 C 288.183594 104.980469 310.964844 112.871094 314.507812 124.265625 C 318.054688 135.65625 317.800781 144.851562 318.476562 153.292969 C 319.152344 161.730469 321.597656 173.75 321.597656 173.75 C 321.597656 173.75 320.617188 173.640625 317.039062 174.304688 C 313.464844 174.96875 307.339844 175.40625 301.578125 179.242188 C 295.820312 183.078125 284.804688 188.859375 284.804688 188.859375 L 273.035156 197.382812 L 269.871094 200.925781 C 269.871094 200.925781 267.929688 221.261719 265.652344 233.667969 C 263.371094 246.070312 262.359375 255.109375 261.601562 258.882812 C 260.839844 262.652344 255.019531 292.652344 253.878906 305.054688 C 252.742188 317.460938 251.726562 323.285156 250.589844 325.183594 C 249.449219 327.082031 239.949219 330.371094 239.949219 330.371094 L 171.984375 332.648438 L 118.824219 333.789062 C 118.824219 333.789062 111.230469 330.625 106.546875 328.597656 C 101.863281 326.574219 95.851562 321.257812 95.535156 318.980469 C 95.21875 316.703125 95.152344 317.269531 95.21875 311.953125 C 95.28125 306.636719 93.824219 306.386719 95.851562 304.421875 C 97.875 302.460938 98.824219 302.019531 98.128906 299.171875 C 97.433594 296.324219 94.457031 294.171875 96.292969 290.183594 C 98.128906 286.195312 97.179688 285.5 97.050781 283.601562 C 96.925781 281.703125 99.203125 277.082031 98.253906 273.664062 C 97.304688 270.246094 94.585938 266.578125 94.585938 266.578125 C 94.585938 266.578125 84.730469 252.613281 82.199219 242.316406 C 79.667969 232.023438 77.898438 225.523438 79.164062 221.136719 C 80.429688 216.75 79.921875 215.734375 79.921875 215.734375 Z M 77.125 214.730469 " fill-opacity="1" fill-rule="nonzero"/><path fill="#000000" d="M 80.796875 133.78125 C 80.5 130.480469 79.992188 129.570312 79.476562 131.414062 C 78.785156 133.859375 79.332031 140.992188 80.359375 142.953125 C 80.769531 143.738281 81.671875 143.839844 81.941406 143.128906 C 82.046875 142.859375 81.902344 141.410156 81.617188 139.910156 C 81.335938 138.414062 80.964844 135.65625 80.796875 133.78125 Z M 80.796875 133.78125 " fill-opacity="1" fill-rule="nonzero"/><g clip-path="url(#6a9ccebfc0)"><path fill="#000000" d="M 323.667969 173.894531 C 321.847656 169.746094 321.4375 166.972656 320.820312 154.566406 C 319.832031 134.75 318.847656 129.390625 314.785156 121.628906 C 312.019531 116.351562 305.816406 110.875 298.40625 107.167969 C 295.148438 105.539062 287.703125 103.078125 284.246094 102.484375 C 282.027344 102.105469 281.09375 102.105469 279.675781 102.484375 C 278.058594 102.917969 277.824219 102.894531 277.089844 102.207031 C 275.179688 100.414062 272.5 100.226562 265.917969 101.417969 C 260.46875 102.40625 247.507812 102.859375 243.644531 102.203125 C 242.171875 101.949219 239.0625 101.21875 236.742188 100.578125 C 230.714844 98.914062 230.027344 99.324219 228.914062 105.238281 C 227.910156 110.601562 225.351562 116.914062 222.160156 121.902344 C 217.382812 129.367188 206.664062 138.480469 199.40625 141.25 C 192.527344 143.875 187.304688 144.554688 173.972656 144.5625 C 160.964844 144.570312 148.9375 143.164062 137.765625 140.332031 C 129.171875 138.15625 123.425781 133.78125 121.695312 128.101562 C 120.703125 124.855469 120.664062 119.472656 121.582031 112.6875 C 121.828125 110.859375 121.765625 110.640625 120.613281 109.328125 C 118.996094 107.484375 117.621094 107.480469 112.664062 109.300781 C 102.550781 113.011719 96.417969 114.300781 86.253906 114.859375 C 77.578125 115.332031 74.746094 116 72.433594 118.121094 C 71.339844 119.125 70.175781 119.714844 68.378906 120.1875 C 64.929688 121.09375 62.160156 122.679688 59.554688 125.246094 C 56.167969 128.578125 53.230469 134.121094 52.039062 139.429688 C 51.1875 143.222656 51.199219 152.324219 52.066406 160.132812 C 52.929688 167.898438 53.300781 178.664062 52.984375 186.8125 C 52.765625 192.378906 52.554688 194.007812 51.53125 197.875 C 50.167969 203.042969 50.234375 203.796875 52.316406 206.839844 C 54.027344 209.339844 57.105469 212.574219 59.0625 213.921875 C 63.421875 216.925781 69.988281 219.457031 74.511719 219.878906 L 77.078125 220.117188 L 76.917969 224.578125 C 76.726562 230.027344 77.402344 234.070312 79.585938 240.535156 C 82.136719 248.074219 86.136719 256.15625 92.429688 266.472656 C 94.644531 270.109375 94.929688 270.8125 95.332031 273.671875 C 95.679688 276.136719 95.671875 277.316406 95.304688 278.957031 C 94.996094 280.335938 94.921875 282.230469 95.09375 284.421875 C 95.296875 287.042969 95.210938 288.269531 94.703125 290.019531 C 93.921875 292.691406 94.125 294.183594 95.679688 297.167969 C 96.292969 298.34375 96.898438 299.84375 97.03125 300.5 C 97.25 301.597656 97.121094 301.804688 95.511719 302.910156 C 92.628906 304.894531 92.246094 306.527344 93.730469 310.496094 C 94.503906 312.566406 94.53125 312.941406 94.101562 315.609375 C 93.664062 318.308594 93.6875 318.601562 94.480469 320.28125 C 95.941406 323.375 102.726562 329.730469 107.296875 332.285156 C 110.296875 333.960938 116.839844 336.164062 121.03125 336.902344 C 123.710938 337.382812 127.851562 337.445312 145.375 337.308594 C 173.054688 337.09375 181.816406 336.683594 203.535156 334.601562 C 207.429688 334.226562 216.515625 333.886719 227.144531 333.714844 C 246.742188 333.398438 246.058594 333.507812 248.691406 330.21875 C 249.507812 329.199219 250.65625 328.042969 251.242188 327.648438 C 253.195312 326.335938 253.839844 324.28125 254.203125 318.21875 C 254.503906 313.21875 256.199219 301.371094 259.796875 279.140625 C 262.019531 265.429688 263.324219 258.785156 266.292969 246.125 C 269.394531 232.890625 269.679688 231.230469 270.640625 220.824219 L 271.292969 213.761719 L 274.671875 212.863281 C 280.65625 211.277344 293.484375 205.394531 302.113281 200.285156 C 312.957031 193.859375 324.84375 182.035156 324.84375 177.671875 C 324.84375 177.070312 324.316406 175.371094 323.667969 173.894531 Z M 176.238281 148.902344 C 176.542969 148.070312 176.777344 148.03125 182.847656 147.800781 C 189.871094 147.53125 192.101562 147.175781 197.390625 145.472656 C 204.859375 143.0625 210.703125 139.464844 216.59375 133.640625 C 220.664062 129.621094 222.945312 126.609375 225.613281 121.71875 C 227.585938 118.101562 227.578125 118.914062 225.597656 123.179688 C 223.882812 126.863281 222.453125 128.886719 218.726562 132.890625 C 213.574219 138.429688 208.761719 142.335938 204.308594 144.582031 C 199.578125 146.972656 195.417969 147.992188 186.257812 149.011719 C 182.5625 149.421875 178.726562 149.761719 177.730469 149.761719 C 176.011719 149.765625 175.933594 149.722656 176.238281 148.902344 Z M 166.585938 147.789062 C 170.542969 147.863281 173.832031 147.96875 173.886719 148.023438 C 173.941406 148.074219 173.691406 149.351562 173.332031 150.863281 C 172.96875 152.371094 172.488281 153.574219 172.265625 153.546875 C 169.207031 153.117188 162.925781 152.515625 161.207031 152.488281 L 159 152.453125 L 159 150.566406 C 159 147.464844 158.539062 147.632812 166.585938 147.789062 Z M 119.34375 132.113281 C 120.601562 134.640625 124.28125 138.359375 127.269531 140.128906 C 131.675781 142.738281 140.144531 145.007812 151.226562 146.554688 C 155.285156 147.121094 155.929688 147.308594 155.929688 147.914062 C 155.929688 148.296875 155.886719 148.601562 155.832031 148.585938 C 155.78125 148.566406 155.566406 148.488281 155.351562 148.394531 C 155.140625 148.308594 153.933594 148.085938 152.667969 147.898438 C 139.292969 145.917969 134.183594 144.609375 128.28125 141.65625 C 123.203125 139.113281 118.308594 133.789062 118.308594 130.804688 C 118.308594 130.359375 118.742188 130.914062 119.34375 132.113281 Z M 56.777344 177.324219 C 56.636719 169.5 56.324219 163.804688 55.742188 158.597656 C 54.792969 150.128906 54.855469 142.746094 55.910156 138.824219 C 57.644531 132.363281 61.976562 126.550781 66.878906 124.097656 L 69.359375 122.855469 L 69.601562 127.769531 C 69.730469 130.472656 70.46875 136.707031 71.238281 141.628906 C 72.851562 151.925781 72.84375 152.234375 70.496094 163.796875 C 69.167969 170.339844 69.167969 170.34375 69.171875 181.070312 C 69.175781 191.445312 69.214844 191.988281 70.3125 197.371094 C 70.933594 200.429688 72.230469 205.261719 73.1875 208.101562 C 74.144531 210.945312 74.925781 213.316406 74.925781 213.382812 C 74.925781 214.046875 69.257812 211.605469 64.984375 209.101562 C 60.585938 206.523438 58.300781 204.582031 56.519531 201.914062 L 54.960938 199.582031 L 55.503906 197.75 C 56.664062 193.847656 56.980469 188.792969 56.777344 177.324219 Z M 71.28125 215.589844 C 70.222656 215.300781 67.546875 214.167969 65.328125 213.070312 C 62.023438 211.4375 60.816406 210.585938 58.609375 208.332031 C 57.132812 206.820312 55.585938 204.988281 55.175781 204.261719 C 54.449219 202.96875 54.488281 202.984375 56.714844 204.902344 C 60.757812 208.382812 68.714844 212.980469 73.5625 214.632812 C 74.605469 214.988281 75.527344 215.480469 75.609375 215.730469 C 75.808594 216.328125 73.75 216.261719 71.28125 215.589844 Z M 273.40625 144.230469 C 273.804688 141.078125 274.042969 138.359375 273.9375 138.183594 C 273.359375 137.246094 272.652344 138.035156 272.246094 140.074219 C 272.003906 141.285156 271.546875 143.296875 271.234375 144.542969 C 269.472656 151.539062 267.746094 169.457031 268.21875 175.871094 C 268.613281 181.285156 268.554688 187.160156 268.015625 195.539062 C 267.730469 199.917969 267.453125 203.449219 267.390625 203.386719 C 267.328125 203.328125 266.929688 201.460938 266.5 199.242188 C 265.097656 191.972656 262.761719 186.125 258.113281 178.253906 C 256.652344 175.78125 255.007812 172.863281 254.457031 171.769531 C 253.90625 170.675781 253.277344 169.671875 253.058594 169.539062 C 252.105469 168.949219 252.324219 170.683594 253.554688 173.449219 C 254.285156 175.097656 255.847656 178.613281 257.023438 181.265625 C 261.332031 190.960938 263.339844 197.40625 264.148438 204.085938 C 264.871094 210.105469 265.015625 224.074219 264.40625 229.140625 C 263.75 234.582031 260.972656 245.355469 259.042969 249.925781 C 256.371094 256.261719 251.210938 262.632812 242.972656 269.761719 C 238.285156 273.820312 235.808594 276.363281 235.789062 277.136719 C 235.761719 278.390625 237.0625 277.96875 239.335938 275.984375 C 240.652344 274.832031 243.113281 272.882812 244.800781 271.644531 C 246.488281 270.410156 249.148438 268.179688 250.703125 266.6875 C 253.558594 263.957031 258.378906 258.058594 259.445312 255.996094 C 260.183594 254.570312 260.429688 254.816406 259.964844 256.511719 C 259.054688 259.839844 255.078125 283.214844 251.675781 305.246094 C 251.136719 308.730469 250.550781 314.3125 250.375 317.652344 C 250.019531 324.476562 249.882812 324.808594 247.179688 325.59375 C 246.15625 325.890625 240.738281 326.167969 232.324219 326.351562 C 222.113281 326.574219 217.058594 326.867188 210.25 327.636719 C 197.085938 329.121094 190.148438 329.46875 166.292969 329.835938 C 154.363281 330.015625 142.273438 330.339844 139.421875 330.546875 C 131.792969 331.105469 120.152344 331.015625 117.15625 330.371094 C 110.910156 329.03125 104.8125 326.179688 101.363281 322.988281 C 98.566406 320.398438 97.492188 318.695312 97.648438 317.105469 L 97.769531 315.890625 L 99.28125 318.089844 C 100.964844 320.542969 102.386719 321.730469 104.710938 322.628906 C 108.800781 324.207031 125.988281 325.535156 125.988281 324.273438 C 125.988281 323.777344 125.425781 323.675781 122.765625 323.675781 C 117.308594 323.675781 109.066406 321.625 105.039062 319.265625 C 102.242188 317.628906 95.972656 308.519531 96.570312 306.960938 C 96.679688 306.675781 97.253906 306.148438 97.84375 305.785156 C 98.4375 305.421875 99.265625 304.734375 99.691406 304.253906 L 100.457031 303.382812 L 102.640625 305.039062 C 107.035156 308.375 112.957031 309.347656 121.609375 308.164062 C 125.328125 307.65625 126.933594 307.605469 129.671875 307.921875 C 133.476562 308.355469 138.339844 308.382812 139.804688 307.976562 C 140.332031 307.828125 140.824219 307.398438 140.894531 307.015625 C 140.996094 306.496094 140.851562 306.378906 140.320312 306.53125 C 138.164062 307.160156 135.710938 307.167969 131.535156 306.550781 C 128.613281 306.117188 124.433594 305.855469 120.035156 305.828125 C 113.496094 305.789062 112.957031 305.726562 109.945312 304.691406 C 104.652344 302.871094 101.34375 299.976562 98.894531 295.027344 C 98.003906 293.230469 97.960938 292.914062 98.375 291.277344 C 98.621094 290.296875 98.945312 289.417969 99.09375 289.324219 C 99.242188 289.234375 101.1875 289.75 103.421875 290.472656 C 109.257812 292.367188 114.53125 292.847656 123.023438 292.269531 C 132.933594 291.589844 136.046875 290.953125 143.6875 288.035156 C 150.417969 285.460938 155.613281 284.46875 164.089844 284.140625 C 164.246094 284.136719 164.375 283.957031 164.375 283.746094 C 164.375 283.148438 154.195312 283.28125 150.492188 283.925781 C 148.714844 284.238281 144.722656 285.175781 141.625 286.011719 C 134.816406 287.851562 130.023438 288.609375 122.148438 289.097656 C 116.632812 289.441406 110.324219 289.199219 107.324219 288.53125 C 104.382812 287.878906 100.277344 286.316406 99.636719 285.609375 C 98.839844 284.726562 98.746094 282.15625 99.351562 277.503906 L 99.6875 274.90625 L 101.800781 276.65625 C 104.976562 279.285156 107.269531 280.464844 112.550781 282.183594 C 117.90625 283.925781 118.808594 284.0625 118.625 283.101562 C 118.542969 282.691406 117.242188 281.953125 115.042969 281.070312 C 110.3125 279.175781 108.109375 277.914062 104.542969 275.0625 C 101.074219 272.285156 98.941406 269.882812 97.058594 266.621094 C 96.335938 265.378906 94.496094 262.199219 92.960938 259.5625 C 87.109375 249.476562 83.546875 241.460938 81.742188 234.3125 C 80.46875 229.269531 80.554688 221.988281 81.953125 216.699219 C 84.769531 206.042969 88.628906 198.25 93.648438 193.082031 C 95.058594 191.628906 95.6875 190.703125 95.53125 190.296875 C 95.402344 189.964844 95.121094 189.691406 94.902344 189.691406 C 94.171875 189.691406 88.636719 195.238281 86.476562 198.140625 C 85.292969 199.726562 83.640625 202.53125 82.796875 204.375 C 81.363281 207.511719 80.6875 208.421875 80.6875 207.230469 C 80.6875 206.949219 79.925781 204.316406 78.996094 201.375 C 78.070312 198.433594 77.1875 195.054688 77.039062 193.871094 C 76.660156 190.824219 77.789062 187.03125 81.296875 179.585938 C 82.875 176.238281 84.203125 173.304688 84.25 173.074219 C 84.453125 172.0625 83.113281 172.492188 82.445312 173.652344 C 81.664062 175.015625 77.542969 180.554688 77.433594 180.386719 C 77.398438 180.332031 77.539062 177.375 77.75 173.816406 C 78.167969 166.769531 77.601562 157.863281 76.078125 147.65625 C 75.667969 144.910156 74.898438 139.726562 74.363281 136.136719 C 73.257812 128.695312 73.113281 123.78125 73.949219 122.164062 C 75.242188 119.660156 77.035156 119.144531 86.0625 118.675781 C 96.332031 118.140625 103.867188 116.628906 112.109375 113.445312 C 116.292969 111.824219 117.539062 111.492188 117.539062 111.992188 C 117.539062 112.117188 116.589844 114.246094 115.429688 116.71875 C 112.460938 123.039062 111.625 126.582031 111.890625 131.714844 C 112.140625 136.457031 113.488281 142.074219 115.183594 145.433594 C 118.535156 152.078125 126.90625 159.378906 134.910156 162.636719 C 141.957031 165.507812 154.234375 167.019531 164.527344 166.289062 C 173.121094 165.679688 186.222656 163.171875 193.9375 160.660156 C 210.042969 155.414062 222.179688 144.195312 230.429688 126.925781 C 234.765625 117.851562 236.199219 111.179688 234.847656 106.363281 C 234.484375 105.070312 234.273438 103.925781 234.382812 103.816406 C 234.488281 103.710938 235.179688 103.820312 235.914062 104.0625 C 237.09375 104.453125 237.304688 104.726562 237.714844 106.4375 C 239.027344 111.914062 236.273438 121.613281 230.015625 133.546875 C 228.773438 135.921875 227.890625 137.863281 228.058594 137.863281 C 228.878906 137.863281 235.664062 124.515625 237.425781 119.4375 C 238.945312 115.0625 239.75 110.433594 239.484375 107.59375 L 239.257812 105.152344 L 240.6875 105.425781 C 248.203125 106.855469 257.65625 106.671875 268.367188 104.898438 C 273.488281 104.046875 275.003906 104.269531 275.898438 106 C 276.621094 107.402344 276.625 108.957031 275.90625 112.773438 C 275.203125 116.523438 274.535156 123.550781 274.8125 124.273438 C 275.101562 125.03125 276 124.945312 276.222656 124.140625 C 276.328125 123.773438 276.527344 122.445312 276.671875 121.191406 C 276.8125 119.9375 277.453125 117.257812 278.089844 115.242188 C 278.816406 112.945312 279.324219 110.382812 279.445312 108.402344 L 279.640625 105.234375 L 281.691406 105.234375 C 284.429688 105.234375 291.832031 107.679688 296.773438 110.222656 C 304.4375 114.15625 309.671875 118.882812 312.1875 124.132812 C 315.257812 130.535156 316.558594 138.570312 317.167969 154.875 C 317.5 163.867188 318.152344 169.773438 319.078125 172.203125 C 319.527344 173.386719 319.648438 173.328125 315.507812 173.949219 C 311.671875 174.527344 308.691406 175.554688 301.953125 178.640625 C 294.160156 182.203125 281.066406 190.28125 275.714844 194.828125 C 274.347656 195.992188 273.179688 196.890625 273.125 196.835938 C 273.070312 196.78125 273.902344 193.984375 274.980469 190.621094 C 276.863281 184.761719 278.433594 181.070312 279.976562 178.882812 C 280.835938 177.667969 280.894531 177.023438 280.152344 177.023438 C 279.3125 177.023438 274.964844 182.664062 273.585938 185.539062 L 272.355469 188.109375 L 272.113281 185.816406 C 271.933594 184.09375 272.121094 182.351562 272.855469 178.863281 C 274.035156 173.285156 275.207031 170.027344 277.035156 167.277344 C 278.5 165.066406 278.699219 164.355469 277.839844 164.355469 C 277.15625 164.355469 275.039062 166.910156 273.230469 169.910156 C 272.480469 171.160156 271.851562 172.015625 271.84375 171.816406 C 271.542969 166.398438 272.308594 152.910156 273.40625 144.230469 Z M 307.101562 193.0625 C 301.648438 197.082031 286.957031 204.828125 278.5625 208.109375 C 276.390625 208.960938 274.46875 209.648438 274.292969 209.628906 C 274.121094 209.613281 274.410156 209.414062 274.9375 209.183594 C 288.183594 203.425781 308.195312 190.902344 316.492188 183.183594 C 318.125 181.664062 319.726562 180.472656 320.050781 180.546875 C 321.300781 180.8125 313.519531 188.335938 307.101562 193.0625 Z M 316.972656 177.613281 C 311.359375 178.800781 302.035156 182.582031 294.824219 186.589844 C 290.078125 189.230469 283.949219 193.21875 277.15625 198.089844 C 274.46875 200.015625 272.175781 201.59375 272.054688 201.59375 C 271.007812 201.59375 276.375 196.308594 280.78125 193.007812 C 285.957031 189.121094 296.585938 182.660156 302.414062 179.847656 C 308.683594 176.828125 313.5 175.234375 317.515625 174.863281 C 320.007812 174.628906 320.082031 174.652344 320.535156 175.644531 C 321.078125 176.832031 321.324219 176.695312 316.972656 177.613281 Z M 316.972656 177.613281 " fill-opacity="1" fill-rule="nonzero"/></g><path fill="#000000" d="M 123.007812 192.074219 C 120.292969 190.90625 116.730469 190.347656 115.378906 190.871094 C 114.308594 191.289062 114.351562 191.320312 116.964844 191.996094 C 118.441406 192.378906 120.601562 193.140625 121.761719 193.683594 L 121.761719 193.6875 C 124.378906 194.910156 124.832031 194.925781 124.832031 193.769531 C 124.832031 193.046875 124.453125 192.695312 123.007812 192.074219 Z M 123.007812 192.074219 " fill-opacity="1" fill-rule="nonzero"/><path fill="#000000" d="M 227.566406 281.023438 C 225.644531 281.640625 223.246094 282.261719 222.242188 282.414062 C 220.382812 282.6875 219.808594 283.0625 220.226562 283.738281 C 220.472656 284.136719 223.074219 283.917969 225.597656 283.285156 C 227.554688 282.796875 231.558594 280.78125 231.558594 280.285156 C 231.558594 279.761719 231.480469 279.773438 227.566406 281.023438 Z M 227.566406 281.023438 " fill-opacity="1" fill-rule="nonzero"/><path fill="#000000" d="M 109.734375 133.257812 C 109.765625 130.199219 110.042969 126.226562 110.355469 124.429688 C 110.667969 122.636719 110.859375 121.097656 110.777344 121.007812 C 110.441406 120.640625 110.117188 121.507812 109.203125 125.269531 C 107.859375 130.785156 107.804688 136.582031 109.066406 140.363281 C 109.5625 141.839844 110.121094 143.355469 110.316406 143.730469 C 110.511719 144.105469 110.816406 144.324219 110.996094 144.210938 C 111.175781 144.101562 110.953125 142.84375 110.5 141.417969 C 109.808594 139.21875 109.6875 137.984375 109.734375 133.257812 Z M 109.734375 133.257812 " fill-opacity="1" fill-rule="nonzero"/><path fill="#000000" d="M 219.582031 146.597656 C 211.632812 152.980469 209.128906 154.875 205.285156 157.441406 C 202.980469 158.980469 200.0625 160.660156 198.808594 161.167969 C 192.386719 163.777344 179.765625 166.429688 167.949219 167.648438 C 161.808594 168.28125 148.375 168.132812 142.9375 167.375 C 139.832031 166.9375 134.25 165.253906 131.90625 164.046875 C 130 163.058594 123.300781 157.550781 119.179688 153.578125 C 117.445312 151.90625 115.933594 150.535156 115.820312 150.535156 C 115.09375 150.535156 116.050781 151.839844 118.980469 154.84375 C 123.664062 159.648438 127.566406 162.703125 131.210938 164.414062 C 134.835938 166.117188 142.203125 168.316406 146.332031 168.921875 C 147.914062 169.152344 149.644531 169.417969 150.171875 169.511719 C 152.167969 169.859375 166.285156 169.355469 170.515625 168.785156 C 179.429688 167.578125 189.898438 165.421875 195.195312 163.695312 C 199.816406 162.1875 201.035156 161.601562 204.792969 159.070312 C 209.945312 155.601562 212.945312 153.28125 220.527344 146.910156 C 224.066406 143.9375 223.238281 143.664062 219.582031 146.597656 Z M 219.582031 146.597656 " fill-opacity="1" fill-rule="nonzero"/><path fill="#000000" d="M 309.121094 131.53125 C 309.765625 134.066406 310.375 136.367188 310.464844 136.644531 C 310.5625 136.925781 310.941406 137.089844 311.308594 137.019531 C 311.820312 136.914062 311.957031 136.570312 311.867188 135.550781 C 311.53125 131.683594 309.304688 125.972656 307.292969 123.796875 C 305.980469 122.386719 305.859375 122.871094 306.980469 125.046875 C 307.511719 126.078125 308.472656 128.996094 309.121094 131.53125 Z M 309.121094 131.53125 " fill-opacity="1" fill-rule="nonzero"/><path fill="#000000" d="M 311.546875 142.667969 C 311.796875 143.316406 312.609375 143.292969 312.816406 142.640625 C 312.878906 142.441406 312.765625 142.023438 312.570312 141.707031 C 312.085938 140.941406 311.207031 141.773438 311.546875 142.667969 Z M 311.546875 142.667969 " fill-opacity="1" fill-rule="nonzero"/><path fill="#000000" d="M 60.289062 144.390625 C 60.839844 144.390625 61.070312 144.007812 61.265625 142.761719 C 61.410156 141.863281 62.121094 139.34375 62.851562 137.160156 C 64.367188 132.628906 64.449219 132 63.503906 132.175781 C 62.171875 132.421875 59.59375 139.492188 59.578125 142.953125 C 59.570312 144.105469 59.714844 144.390625 60.289062 144.390625 Z M 60.289062 144.390625 " fill-opacity="1" fill-rule="nonzero"/><path fill="#000000" d="M 238.648438 247.410156 C 238.257812 247.261719 237.296875 248.027344 235.753906 249.710938 C 232.949219 252.769531 228.878906 255.789062 225.539062 257.289062 C 224.175781 257.902344 223.160156 258.5625 223.285156 258.761719 C 223.632812 259.328125 228.804688 257.753906 231.128906 256.375 C 233.664062 254.867188 236.703125 252.191406 238.148438 250.195312 C 239.371094 248.511719 239.507812 247.742188 238.648438 247.410156 Z M 238.648438 247.410156 " fill-opacity="1" fill-rule="nonzero"/><path fill="#000000" d="M 231.824219 310.378906 C 232.476562 311.027344 239.996094 308.503906 242.457031 306.808594 C 244.457031 305.433594 244.945312 304.660156 244.257812 303.972656 C 243.914062 303.628906 243.519531 303.695312 242.578125 304.253906 C 238.929688 306.421875 237.226562 307.242188 234.53125 308.148438 C 231.808594 309.0625 231.097656 309.648438 231.824219 310.378906 Z M 231.824219 310.378906 " fill-opacity="1" fill-rule="nonzero"/><path fill="#000000" d="M 239.285156 317.53125 C 238.40625 317.53125 237.917969 318.105469 238.289062 318.703125 C 238.660156 319.308594 239.785156 318.960938 239.929688 318.199219 C 240.019531 317.742188 239.8125 317.53125 239.285156 317.53125 Z M 239.285156 317.53125 " fill-opacity="1" fill-rule="nonzero"/><path fill="#000000" d="M 240.207031 312.019531 C 239.246094 311.652344 237.316406 312.539062 237.316406 313.34375 C 237.316406 314.257812 238.699219 314.328125 239.917969 313.476562 C 240.910156 312.78125 241 312.324219 240.207031 312.019531 Z M 240.207031 312.019531 " fill-opacity="1" fill-rule="nonzero"/></svg>