<svg xmlns="http://www.w3.org/2000/svg" xmlns:xlink="http://www.w3.org/1999/xlink" width="500" zoomAndPan="magnify" viewBox="0 0 375 374.999991" height="500" preserveAspectRatio="xMidYMid meet" version="1.0"><defs><clipPath id="ba73e18a4e"><path d="M 37.5 60 L 327 60 L 327 353.9375 L 37.5 353.9375 Z M 37.5 60 " clip-rule="nonzero"/></clipPath><clipPath id="e9001b0848"><path d="M 37.5 60 L 327 60 L 327 353.9375 L 37.5 353.9375 Z M 37.5 60 " clip-rule="nonzero"/></clipPath></defs><g clip-path="url(#ba73e18a4e)"><path fill="#d9d9d9" d="M 326.292969 202.089844 C 325.75 201.671875 325.632812 201.011719 325.269531 200.472656 C 325.152344 200.109375 324.972656 199.75 324.851562 199.390625 C 324.429688 198.070312 323.949219 196.75 323.351562 195.550781 C 321.550781 191.890625 319.75 188.289062 317.832031 184.691406 C 315.789062 180.847656 313.75 176.949219 312.007812 172.929688 C 309.789062 167.828125 307.328125 162.847656 304.628906 157.988281 C 299.707031 149.046875 294.726562 140.105469 289.925781 131.105469 C 289.628906 130.503906 289.328125 129.84375 288.90625 129.304688 C 288.726562 128.761719 288.425781 128.222656 288.066406 127.742188 C 288.007812 127.5625 287.886719 127.382812 287.828125 127.203125 C 286.027344 124.023438 284.167969 120.78125 282.367188 117.601562 C 278.707031 111.242188 274.746094 105.121094 270.90625 98.878906 C 268.386719 94.738281 265.625 90.839844 262.5625 87.058594 C 261.605469 85.859375 260.585938 84.839844 259.203125 84 C 257.285156 82.859375 255.363281 81.777344 253.382812 80.9375 C 250.261719 79.617188 247.023438 78.417969 243.84375 77.21875 C 239.460938 75.539062 235.203125 73.558594 230.878906 71.757812 C 229.199219 71.035156 227.640625 70.195312 226.199219 69.175781 C 225.839844 68.875 225.421875 68.636719 225.058594 68.335938 C 225.058594 70.496094 224.699219 72.597656 224.160156 74.699219 C 224.699219 72.597656 225 70.496094 225.058594 68.335938 C 224.761719 67.917969 224.339844 67.617188 223.921875 67.316406 C 223.5 66.898438 223.078125 66.417969 222.601562 65.996094 C 220.558594 64.195312 218.578125 62.214844 216.179688 60.894531 C 215.277344 60.355469 214.378906 60.054688 213.417969 60.65625 C 213.539062 60.777344 213.597656 60.894531 213.597656 61.074219 C 213.597656 60.894531 213.539062 60.777344 213.417969 60.65625 C 213.058594 60.714844 212.699219 60.714844 212.339844 60.476562 C 211.980469 60.117188 211.5 60.234375 211.078125 60.296875 C 209.757812 60.414062 208.378906 60.597656 207.058594 60.835938 C 202.859375 61.554688 198.65625 62.15625 194.457031 62.394531 C 191.757812 62.515625 188.996094 62.757812 186.296875 62.9375 C 183.476562 63.117188 180.65625 63.535156 177.835938 63.597656 C 174.894531 63.714844 171.894531 63.597656 168.953125 63.476562 C 166.253906 63.417969 163.492188 63.355469 160.792969 62.9375 C 158.394531 62.578125 155.933594 62.15625 153.53125 61.796875 C 152.390625 61.617188 151.191406 61.617188 150.050781 61.257812 C 149.570312 61.074219 149.09375 61.195312 148.671875 61.4375 C 148.070312 61.796875 147.53125 62.15625 146.929688 62.515625 C 146.152344 62.816406 145.613281 63.476562 144.953125 63.957031 C 142.550781 65.875 140.449219 68.15625 138.050781 70.078125 C 137.691406 70.316406 137.332031 70.558594 136.96875 70.796875 C 136.96875 71.097656 137.03125 71.398438 137.03125 71.695312 C 136.96875 71.398438 136.96875 71.097656 136.96875 70.796875 C 135.351562 71.878906 133.488281 72.476562 131.75 73.257812 C 126.589844 75.539062 121.367188 77.699219 116.089844 79.679688 C 112.128906 81.117188 108.226562 82.679688 104.746094 85.078125 C 103.96875 85.617188 103.246094 86.160156 102.648438 86.878906 C 101.386719 88.378906 100.125 89.878906 98.988281 91.5 C 97.484375 93.660156 95.867188 95.761719 94.484375 98.039062 C 90.285156 104.878906 85.964844 111.601562 81.945312 118.503906 C 80.265625 121.441406 78.644531 124.382812 76.964844 127.324219 C 76.605469 127.804688 76.242188 128.285156 76.125 128.882812 C 75.464844 129.722656 75.042969 130.742188 74.5625 131.644531 C 69.761719 140.644531 64.78125 149.585938 59.863281 158.464844 C 56.980469 163.6875 54.402344 169.027344 52 174.488281 C 49.121094 181.089844 45.460938 187.328125 42.28125 193.75 C 41.140625 196.089844 40.121094 198.429688 39.28125 200.890625 C 39.941406 201.191406 40.480469 201.671875 41.019531 202.152344 C 40.480469 201.671875 39.941406 201.191406 39.28125 200.890625 C 39.039062 201.191406 38.917969 201.550781 38.859375 201.910156 C 38.738281 202.089844 38.621094 202.332031 38.441406 202.511719 C 37.71875 203.351562 37.71875 203.652344 38.378906 204.492188 C 39.761719 206.230469 41.378906 207.730469 43.121094 209.113281 C 46.421875 211.632812 49.601562 214.210938 52.78125 216.914062 C 54.402344 218.292969 56.082031 219.554688 57.761719 220.8125 C 64.421875 225.855469 71.441406 230.414062 78.285156 235.15625 C 80.925781 236.957031 83.683594 238.515625 86.566406 239.894531 C 88.546875 240.796875 90.527344 241.753906 92.386719 242.835938 C 93.765625 243.617188 95.207031 244.097656 96.707031 244.457031 C 97.484375 244.636719 97.964844 244.394531 98.386719 243.855469 C 98.867188 243.316406 99.226562 242.65625 99.464844 241.996094 C 99.707031 241.695312 99.886719 241.335938 100.007812 240.914062 C 101.507812 237.976562 102.945312 235.09375 104.148438 232.035156 C 104.566406 230.953125 105.046875 229.875 105.527344 228.792969 C 105.648438 228.554688 105.707031 228.195312 106.066406 228.132812 C 106.066406 228.253906 106.066406 228.375 106.066406 228.496094 L 106.007812 228.554688 C 106.007812 228.554688 106.066406 228.613281 106.066406 228.613281 C 105.828125 231.253906 105.585938 233.894531 105.46875 236.535156 C 105.40625 236.714844 105.40625 236.957031 105.347656 237.136719 C 105.105469 240.914062 104.867188 244.695312 104.628906 248.476562 C 104.386719 252.796875 104.148438 257.175781 103.90625 261.496094 C 103.667969 266.539062 103.425781 271.578125 103.1875 276.558594 C 102.886719 282.378906 102.585938 288.199219 102.285156 294.023438 C 101.925781 301.164062 101.566406 308.363281 101.148438 315.503906 C 100.847656 321.085938 100.488281 326.664062 100.246094 332.246094 C 100.125 334.226562 99.945312 336.144531 100.007812 338.125 C 100.964844 338.488281 101.925781 338.964844 102.765625 339.507812 C 101.867188 338.964844 100.964844 338.488281 100.007812 338.125 C 99.886719 338.605469 99.828125 339.085938 99.945312 339.566406 C 99.828125 339.867188 99.828125 340.167969 99.828125 340.464844 C 99.765625 341.96875 99.765625 343.527344 99.585938 345.027344 C 99.464844 345.988281 99.886719 346.648438 100.546875 347.1875 C 103.066406 349.289062 105.886719 350.847656 109.007812 351.808594 C 112.96875 353.066406 117.046875 353.726562 121.1875 353.789062 C 122.449219 353.789062 123.648438 353.90625 124.910156 353.667969 C 126.109375 353.429688 127.371094 353.429688 128.628906 353.25 C 130.070312 353.066406 131.511719 353.128906 132.949219 352.949219 C 136.25 352.527344 139.371094 351.449219 142.609375 350.667969 C 146.089844 349.886719 149.570312 349.527344 153.050781 349.527344 C 154.851562 349.527344 156.710938 349.585938 158.511719 349.769531 C 161.632812 350.066406 164.753906 350.546875 167.8125 351.085938 C 171.953125 351.808594 176.09375 352.226562 180.296875 352.226562 C 182.214844 352.226562 184.136719 352.167969 186.117188 352.289062 C 188.15625 352.40625 190.257812 352.589844 192.296875 352.589844 C 194.515625 352.589844 196.738281 352.46875 198.898438 352.40625 C 204.839844 352.226562 210.777344 352.109375 216.71875 351.929688 C 218.820312 351.867188 220.917969 351.6875 223.019531 351.628906 C 225.839844 351.507812 228.601562 351.566406 231.359375 351.929688 C 231.960938 351.988281 232.621094 352.046875 233.222656 352.046875 C 235.203125 352.167969 237.121094 352.289062 239.101562 352.589844 C 239.582031 352.648438 240.0625 352.769531 240.542969 352.769531 C 242.460938 352.707031 244.382812 352.769531 246.363281 352.589844 C 251.101562 352.167969 255.605469 351.027344 259.863281 348.925781 C 261.425781 348.148438 262.683594 347.007812 264.066406 345.988281 C 264.304688 345.808594 264.484375 345.507812 264.664062 345.265625 C 264.84375 345.085938 264.90625 344.847656 264.84375 344.605469 C 264.785156 343.40625 264.664062 342.207031 264.605469 341.007812 C 264.664062 340.585938 264.664062 340.167969 264.605469 339.746094 C 264.605469 339.207031 264.605469 338.726562 264.542969 338.1875 C 264.425781 336.144531 264.363281 334.105469 264.246094 332.066406 C 263.945312 326.425781 263.644531 320.785156 263.34375 315.144531 C 263.105469 310.582031 262.863281 306.023438 262.625 301.523438 C 262.382812 296.960938 262.144531 292.339844 261.902344 287.78125 C 261.664062 282.859375 261.425781 278 261.183594 273.078125 C 260.945312 268.277344 260.765625 263.476562 260.464844 258.738281 C 260.222656 254.355469 259.984375 249.976562 259.683594 245.597656 C 259.5625 244.035156 259.5625 242.476562 259.324219 240.976562 C 259.144531 241.035156 259.082031 240.914062 259.082031 240.796875 C 259.144531 240.976562 259.203125 241.035156 259.324219 240.976562 C 259.144531 237.136719 258.785156 233.355469 258.484375 229.515625 C 258.421875 228.734375 258.363281 227.953125 258.363281 227.234375 C 258.421875 227.234375 258.484375 227.234375 258.542969 227.175781 C 258.785156 227.59375 259.023438 227.953125 259.265625 228.375 C 260.105469 230.535156 260.882812 232.695312 261.902344 234.734375 C 262.746094 236.476562 263.523438 238.277344 264.542969 239.957031 C 264.664062 240.4375 264.84375 240.855469 265.144531 241.214844 C 265.382812 241.816406 265.683594 242.414062 266.164062 242.894531 C 266.523438 243.257812 266.882812 243.554688 267.425781 243.4375 C 268.925781 243.074219 270.425781 242.65625 271.804688 241.875 C 272.886719 241.277344 273.964844 240.675781 275.105469 240.136719 C 279.605469 238.09375 283.925781 235.695312 287.945312 232.875 C 290.949219 230.773438 294.007812 228.792969 297.007812 226.695312 C 301.929688 223.273438 306.847656 219.792969 311.46875 216.011719 C 314.46875 213.554688 317.410156 211.03125 320.46875 208.753906 C 321.011719 208.332031 321.550781 207.914062 322.089844 207.433594 C 323.53125 206.230469 324.910156 204.851562 326.109375 203.410156 C 326.472656 202.992188 326.652344 202.390625 326.292969 202.089844 Z M 326.292969 202.089844 " fill-opacity="1" fill-rule="nonzero"/></g><path fill="#d9d9d9" d="M 150.113281 61.257812 C 151.253906 61.617188 152.453125 61.617188 153.59375 61.796875 C 155.992188 62.15625 158.453125 62.578125 160.851562 62.9375 C 163.554688 63.355469 166.3125 63.417969 169.015625 63.476562 C 171.953125 63.597656 174.953125 63.714844 177.894531 63.597656 C 180.714844 63.476562 183.535156 63.117188 186.355469 62.9375 C 189.054688 62.757812 191.816406 62.515625 194.515625 62.394531 C 198.71875 62.097656 202.917969 61.496094 207.117188 60.777344 C 208.4375 60.535156 209.757812 60.414062 211.140625 60.234375 C 211.558594 60.175781 212.039062 60.054688 212.398438 60.414062 C 212.160156 60.476562 212.039062 60.597656 212.039062 60.835938 C 211.917969 62.457031 211.558594 64.015625 211.617188 65.636719 C 211.617188 65.996094 211.558594 66.355469 211.5 66.777344 C 211.257812 67.675781 211.320312 67.675781 210.480469 67.855469 C 208.917969 68.21875 207.417969 68.578125 205.917969 69.117188 C 203.699219 69.898438 201.476562 70.617188 199.199219 71.15625 C 196.738281 71.757812 194.21875 72.117188 191.695312 72.417969 C 189.296875 72.71875 186.835938 72.835938 184.375 72.957031 C 180.117188 73.136719 175.855469 73.015625 171.59375 72.417969 C 169.015625 72.058594 166.492188 71.816406 163.972656 71.335938 C 161.691406 70.917969 159.414062 70.617188 157.191406 70.136719 C 155.03125 69.65625 152.871094 68.996094 150.59375 69.65625 C 150.230469 69.777344 149.992188 69.597656 149.933594 69.175781 C 149.75 68.035156 149.570312 66.898438 149.332031 65.757812 C 148.910156 64.4375 149.273438 63.175781 149.933594 61.976562 C 150.050781 61.734375 150.113281 61.496094 150.113281 61.257812 Z M 209.398438 72.476562 C 208.859375 72.65625 208.378906 72.835938 207.839844 72.957031 C 203.457031 74.398438 199.199219 76.136719 194.578125 76.917969 C 191.335938 77.457031 188.15625 77.878906 184.855469 77.996094 C 184.316406 77.996094 183.835938 77.996094 183.296875 78.058594 C 181.496094 78.296875 179.753906 78.296875 177.953125 78.417969 C 176.574219 78.476562 175.132812 78.417969 173.753906 78.296875 C 171.59375 78.117188 169.433594 77.816406 167.332031 77.335938 C 162.773438 76.199219 158.273438 75.058594 153.652344 74.398438 C 152.8125 74.277344 151.914062 73.976562 150.953125 74.21875 C 151.070312 74.9375 151.371094 75.539062 151.613281 76.199219 C 152.332031 77.816406 153.292969 79.378906 154.191406 80.878906 C 154.671875 81.597656 155.09375 82.378906 155.691406 82.976562 C 157.851562 85.199219 160.011719 87.359375 162.652344 89.097656 C 164.332031 90.179688 166.074219 91.078125 167.992188 91.738281 C 172.3125 93.179688 176.816406 93.898438 181.316406 94.140625 C 185.277344 94.378906 189.117188 93.960938 192.898438 92.578125 C 196.015625 91.378906 198.835938 89.757812 201.238281 87.359375 C 201.597656 87 202.019531 86.640625 202.316406 86.21875 C 204.238281 83.578125 206.277344 81 207.839844 78.117188 C 208.796875 76.257812 209.636719 74.398438 210.296875 72.296875 C 209.9375 72.355469 209.636719 72.417969 209.398438 72.476562 Z M 210.058594 69.175781 C 208.617188 69.417969 207.238281 69.65625 205.859375 70.136719 C 201.175781 71.695312 196.4375 72.835938 191.515625 73.558594 C 189.355469 73.855469 187.195312 74.039062 185.035156 74.097656 C 181.855469 74.21875 178.613281 74.15625 175.433594 73.738281 C 174.65625 73.617188 173.875 73.496094 173.09375 73.496094 C 171.773438 73.558594 170.515625 73.316406 169.195312 73.199219 C 168.414062 73.136719 167.632812 73.078125 166.855469 72.957031 C 164.875 72.597656 162.894531 72.355469 160.972656 72.058594 C 158.753906 71.695312 156.53125 71.398438 154.371094 71.097656 C 153.230469 70.917969 152.152344 70.675781 151.011719 70.976562 C 150.472656 71.097656 150.292969 71.277344 150.351562 71.816406 C 150.410156 72.476562 150.59375 72.65625 151.191406 72.71875 C 151.730469 72.71875 152.332031 72.71875 152.8125 72.777344 C 154.851562 73.199219 156.832031 73.675781 158.871094 74.097656 C 162.714844 74.9375 166.554688 75.957031 170.453125 76.738281 C 173.09375 77.277344 175.675781 77.578125 178.316406 77.457031 C 179.996094 77.398438 181.675781 77.21875 183.355469 77.097656 C 185.214844 76.976562 187.074219 76.859375 188.875 76.617188 C 190.976562 76.378906 193.015625 75.957031 195.058594 75.597656 C 197.15625 75.238281 199.257812 74.816406 201.238281 74.097656 C 203.757812 73.199219 206.277344 72.417969 208.859375 71.757812 C 209.457031 71.636719 210.238281 71.816406 210.597656 71.277344 C 210.957031 70.738281 210.957031 70.015625 211.019531 69.417969 C 211.019531 69.355469 211.019531 69.355469 211.019531 69.296875 C 210.71875 68.996094 210.359375 69.117188 210.058594 69.175781 Z M 210.058594 69.175781 " fill-opacity="1" fill-rule="nonzero"/><g clip-path="url(#e9001b0848)"><path fill="#d9d9d9" d="M 259.265625 241.277344 C 259.503906 242.835938 259.503906 244.335938 259.625 245.894531 C 259.925781 250.277344 260.164062 254.65625 260.402344 259.039062 C 260.644531 263.839844 260.882812 268.640625 261.125 273.378906 C 261.363281 278.300781 261.605469 283.160156 261.84375 288.082031 C 262.085938 292.640625 262.324219 297.261719 262.5625 301.824219 C 262.804688 306.382812 263.042969 310.945312 263.285156 315.445312 C 263.585938 321.085938 263.882812 326.726562 264.183594 332.367188 C 264.304688 334.40625 264.425781 336.445312 264.484375 338.488281 C 264.484375 339.027344 264.484375 339.507812 264.542969 340.046875 C 263.945312 340.40625 263.34375 340.886719 262.683594 341.1875 C 259.742188 342.808594 256.683594 344.128906 253.503906 345.265625 C 251.042969 346.105469 248.582031 346.886719 246.003906 347.007812 C 243.480469 347.128906 240.960938 347.308594 238.441406 347.308594 C 234.960938 347.308594 231.480469 347.367188 228 347.1875 C 225.480469 347.066406 222.898438 346.886719 220.378906 346.765625 C 217.019531 346.585938 213.660156 346.289062 210.238281 346.289062 C 205.316406 346.289062 200.335938 346.347656 195.417969 346.347656 C 195.175781 346.347656 194.9375 346.347656 194.695312 346.347656 C 192.417969 346.648438 190.078125 346.585938 187.796875 346.648438 C 184.316406 346.707031 180.835938 346.527344 177.355469 346.347656 C 175.015625 346.226562 172.675781 346.226562 170.335938 346.46875 C 169.015625 346.585938 167.632812 346.46875 166.3125 346.347656 C 164.035156 346.226562 161.691406 346.289062 159.414062 346.105469 C 157.253906 345.988281 155.152344 345.746094 153.050781 345.328125 C 151.433594 345.027344 149.753906 344.546875 148.070312 344.605469 C 144.769531 344.789062 141.53125 345.207031 138.410156 345.988281 C 135.351562 346.765625 132.230469 347.308594 129.050781 347.488281 C 125.570312 347.667969 122.148438 347.308594 118.789062 346.585938 C 117.046875 346.226562 115.308594 345.988281 113.6875 345.328125 C 110.148438 343.945312 106.789062 342.386719 103.605469 340.285156 C 102.464844 339.507812 101.265625 338.785156 99.945312 338.367188 C 99.886719 336.386719 100.066406 334.464844 100.1875 332.484375 C 100.488281 326.90625 100.785156 321.324219 101.085938 315.742188 C 101.445312 308.601562 101.808594 301.402344 102.226562 294.261719 C 102.527344 288.441406 102.828125 282.621094 103.125 276.800781 C 103.367188 271.757812 103.605469 266.71875 103.847656 261.738281 C 104.085938 257.417969 104.328125 253.035156 104.566406 248.714844 C 104.808594 244.9375 105.046875 241.15625 105.285156 237.375 C 105.285156 237.195312 105.347656 236.957031 105.40625 236.773438 C 105.585938 236.835938 105.648438 236.773438 105.707031 236.59375 C 105.765625 236.234375 105.828125 235.933594 105.945312 235.574219 C 106.546875 232.695312 107.085938 229.753906 107.566406 226.875 C 107.867188 224.652344 108.226562 222.375 108.289062 220.09375 C 108.347656 218.953125 108.40625 217.8125 108.585938 216.734375 C 108.765625 215.53125 108.949219 214.273438 109.066406 213.074219 C 109.308594 210.851562 109.308594 208.691406 109.425781 206.472656 C 109.667969 203.292969 109.726562 200.050781 109.847656 196.871094 C 109.96875 193.03125 109.90625 189.128906 110.027344 185.289062 C 110.207031 179.167969 110.027344 172.988281 110.269531 166.867188 C 110.386719 164.105469 110.328125 161.285156 110.148438 158.464844 C 109.96875 155.886719 109.90625 153.304688 109.726562 150.726562 C 109.546875 148.207031 109.308594 145.625 109.128906 143.105469 C 108.886719 140.105469 108.648438 137.164062 108.289062 134.164062 C 107.988281 131.882812 107.746094 129.605469 107.207031 127.324219 C 106.367188 123.664062 105.707031 119.941406 104.085938 116.523438 C 103.847656 116.042969 103.667969 115.503906 103.425781 115.023438 C 102.648438 113.160156 101.808594 111.300781 100.726562 109.5625 C 100.605469 109.382812 100.546875 109.082031 100.246094 109.140625 C 100.1875 109.320312 100.246094 109.5 100.304688 109.621094 C 100.667969 111 101.085938 112.320312 101.445312 113.703125 C 102.105469 115.921875 102.707031 118.203125 103.488281 120.421875 C 103.96875 121.742188 104.265625 123.0625 104.6875 124.382812 C 106.007812 129.0625 106.546875 133.804688 106.789062 138.664062 C 106.90625 141.066406 106.90625 143.464844 107.027344 145.925781 C 107.085938 147.664062 107.265625 149.347656 107.386719 151.085938 C 107.449219 152.285156 107.386719 153.425781 107.386719 154.746094 C 106.90625 154.445312 106.667969 154.144531 106.425781 153.785156 C 105.046875 152.167969 103.726562 150.484375 102.167969 148.984375 C 99.828125 146.707031 97.546875 144.425781 95.265625 142.085938 C 91.785156 138.484375 88.066406 135.304688 84.105469 132.242188 C 81.824219 130.503906 79.542969 128.824219 76.964844 127.441406 C 78.644531 124.503906 80.265625 121.5625 81.945312 118.621094 C 85.964844 111.722656 90.285156 105 94.484375 98.160156 C 95.867188 95.878906 97.484375 93.78125 98.988281 91.621094 C 100.125 90 101.328125 88.5 102.648438 87 C 103.246094 86.277344 103.96875 85.738281 104.746094 85.199219 C 108.289062 82.796875 112.1875 81.296875 116.089844 79.796875 C 121.367188 77.816406 126.589844 75.71875 131.75 73.378906 C 133.488281 72.597656 135.351562 71.996094 136.96875 70.917969 C 136.96875 72.117188 137.332031 73.199219 137.511719 74.398438 C 138.050781 77.816406 139.429688 81 140.929688 84.117188 C 142.972656 88.378906 145.492188 92.339844 148.191406 96.179688 C 149.332031 97.859375 150.652344 99.421875 152.152344 100.800781 C 152.992188 101.519531 153.832031 102.179688 154.671875 102.960938 C 157.371094 105.359375 160.375 107.160156 163.734375 108.480469 C 166.972656 109.742188 170.273438 110.519531 173.695312 111.179688 C 176.273438 111.660156 178.914062 111.722656 181.496094 111.839844 C 184.316406 112.023438 187.136719 111.722656 189.957031 111.242188 C 191.816406 110.941406 193.675781 110.640625 195.476562 110.042969 C 198.476562 109.019531 201.359375 107.640625 204.058594 106.019531 C 206.097656 104.761719 208.078125 103.441406 209.699219 101.699219 C 211.078125 100.261719 212.160156 98.582031 213.417969 97.019531 C 215.9375 93.898438 218.097656 90.539062 219.660156 86.820312 C 221.039062 83.519531 222.601562 80.277344 223.621094 76.859375 C 224.460938 74.097656 225.058594 71.335938 225.121094 68.457031 C 225.480469 68.757812 225.898438 68.996094 226.261719 69.296875 C 227.699219 70.378906 229.261719 71.21875 230.941406 71.878906 C 235.261719 73.675781 239.523438 75.65625 243.902344 77.335938 C 247.082031 78.539062 250.324219 79.679688 253.445312 81.058594 C 255.484375 81.957031 257.402344 83.039062 259.265625 84.117188 C 260.644531 84.898438 261.664062 85.980469 262.625 87.179688 C 265.625 90.960938 268.445312 94.859375 270.964844 99 C 274.804688 105.242188 278.765625 111.363281 282.425781 117.722656 C 284.285156 120.902344 286.085938 124.144531 287.886719 127.324219 C 288.007812 127.503906 288.066406 127.683594 288.128906 127.863281 C 285.007812 130.023438 281.886719 132.183594 279.007812 134.644531 C 277.625 135.785156 276.1875 136.804688 274.867188 138.066406 C 271.984375 140.703125 269.164062 143.34375 266.464844 146.164062 C 265.144531 147.546875 263.882812 148.925781 262.625 150.367188 C 260.703125 152.527344 259.144531 154.988281 257.222656 157.207031 C 257.105469 157.328125 257.042969 157.566406 256.742188 157.445312 C 256.742188 157.027344 256.804688 156.546875 256.804688 156.125 C 256.863281 150.484375 256.863281 144.90625 257.042969 139.265625 C 257.042969 138.425781 257.042969 137.523438 257.105469 136.683594 C 257.285156 133.5625 257.464844 130.445312 257.644531 127.324219 C 257.765625 124.804688 257.824219 122.28125 257.945312 119.761719 C 257.945312 119.640625 257.945312 119.460938 257.945312 119.34375 C 258.183594 117.121094 258.0625 114.960938 258.0625 112.742188 C 258.0625 112.082031 257.703125 111.542969 257.34375 111.542969 C 256.984375 111.480469 256.5625 111.960938 256.445312 112.683594 C 256.203125 114.0625 256.023438 115.441406 256.023438 116.882812 C 256.023438 118.742188 255.902344 120.601562 255.785156 122.460938 C 255.605469 124.921875 255.363281 127.324219 255.421875 129.785156 C 255.421875 133.023438 255.484375 136.265625 255.605469 139.503906 C 255.785156 144.183594 255.542969 148.867188 255.304688 153.546875 C 255.0625 157.625 254.824219 161.648438 254.644531 165.726562 C 254.523438 168.1875 254.523438 170.707031 254.464844 173.167969 C 254.34375 176.527344 254.644531 179.828125 254.761719 183.1875 C 254.882812 185.828125 254.824219 188.46875 254.945312 191.171875 C 255.0625 193.089844 255.125 194.949219 255.242188 196.871094 C 255.304688 197.769531 255.363281 198.730469 255.421875 199.632812 C 255.605469 201.671875 255.84375 203.710938 255.964844 205.8125 C 256.082031 208.03125 256.203125 210.191406 256.382812 212.414062 C 256.625 215.59375 256.804688 218.832031 256.984375 222.015625 C 257.222656 225.675781 257.464844 229.273438 257.824219 232.933594 C 258.125 235.753906 258.605469 238.574219 259.144531 241.394531 C 259.023438 241.214844 259.082031 241.335938 259.265625 241.277344 Z M 199.796875 206.890625 C 199.859375 209.113281 199.617188 211.273438 199.917969 213.492188 C 200.039062 214.332031 200.398438 214.8125 201.058594 215.292969 C 204.597656 217.511719 208.320312 219.375 212.097656 221.234375 C 214.617188 222.492188 217.257812 223.515625 219.898438 224.472656 C 220.257812 224.59375 220.621094 224.773438 220.980469 224.652344 C 222.238281 224.234375 223.558594 223.933594 224.820312 223.453125 C 227.28125 222.492188 229.679688 221.472656 231.960938 220.214844 C 233.882812 219.191406 235.863281 218.171875 237.78125 217.09375 C 239.703125 215.953125 241.683594 214.8125 243.242188 213.191406 C 243.542969 212.894531 243.722656 212.59375 243.78125 212.113281 C 243.84375 210.671875 244.082031 209.230469 244.140625 207.792969 C 244.382812 204.492188 244.621094 201.191406 244.742188 197.890625 C 244.863281 193.75 245.042969 189.609375 245.164062 185.46875 C 245.28125 181.027344 245.460938 176.648438 245.402344 172.207031 C 245.402344 170.46875 245.460938 168.667969 245.222656 166.925781 C 245.164062 166.449219 244.984375 166.148438 244.503906 166.085938 C 244.261719 166.085938 244.023438 166.027344 243.78125 166.027344 C 241.863281 166.328125 239.941406 166.566406 238.082031 166.867188 C 235.679688 167.226562 233.28125 167.46875 230.882812 167.585938 C 225.839844 167.828125 220.800781 167.46875 215.757812 167.40625 C 215.699219 167.40625 215.640625 167.40625 215.578125 167.40625 C 213.117188 167.167969 210.660156 167.046875 208.136719 167.046875 C 205.976562 167.046875 203.816406 167.046875 201.65625 167.226562 C 200.21875 167.347656 199.859375 167.585938 199.738281 169.027344 C 199.738281 169.148438 199.738281 169.328125 199.738281 169.449219 C 199.675781 175.269531 199.738281 181.089844 199.558594 186.910156 C 199.4375 193.628906 199.558594 200.292969 199.796875 206.890625 Z M 41.558594 202.75 C 45.582031 205.691406 49.539062 208.753906 53.5 211.8125 C 54.402344 212.53125 55.179688 213.3125 56.023438 214.09375 C 57.882812 215.773438 59.980469 217.09375 61.960938 218.59375 C 66.101562 221.652344 70.304688 224.59375 74.5625 227.414062 C 77.144531 229.09375 79.84375 230.535156 82.484375 232.035156 C 84.703125 233.296875 86.863281 234.675781 89.085938 235.875 C 92.324219 237.675781 95.746094 239.234375 99.167969 240.617188 C 99.464844 240.734375 99.707031 240.855469 100.007812 241.035156 C 101.507812 238.09375 102.945312 235.214844 104.148438 232.15625 C 104.566406 231.074219 105.046875 229.996094 105.527344 228.914062 C 105.648438 228.675781 105.707031 228.3125 106.066406 228.253906 C 106.367188 225.855469 106.667969 223.453125 106.847656 221.054688 C 107.085938 217.753906 107.148438 214.453125 107.265625 211.152344 C 107.449219 206.890625 107.507812 202.691406 107.6875 198.429688 C 107.808594 195.851562 107.746094 193.332031 107.867188 190.808594 C 108.105469 187.210938 108.046875 183.550781 107.988281 179.949219 C 107.925781 175.628906 107.867188 171.367188 107.746094 167.046875 C 107.6875 164.765625 107.386719 162.425781 107.386719 160.148438 C 107.386719 159.726562 107.328125 159.308594 107.386719 158.886719 C 107.566406 157.808594 107.027344 156.964844 106.367188 156.1875 C 104.808594 154.445312 103.246094 152.765625 101.808594 150.964844 C 100.546875 149.40625 99.226562 147.90625 97.785156 146.527344 C 95.867188 144.726562 93.765625 143.046875 91.90625 141.183594 C 91.785156 141.066406 91.605469 140.945312 91.425781 140.765625 C 89.023438 138.363281 86.503906 136.085938 83.925781 133.925781 C 81.523438 131.945312 79.003906 130.082031 76.125 128.882812 C 75.464844 129.722656 75.042969 130.742188 74.5625 131.644531 C 69.761719 140.644531 64.78125 149.585938 59.863281 158.464844 C 56.980469 163.6875 54.402344 169.027344 52 174.488281 C 49.121094 181.089844 45.460938 187.328125 42.28125 193.75 C 41.140625 196.089844 40.121094 198.429688 39.28125 200.890625 C 40.121094 201.429688 40.78125 202.152344 41.558594 202.75 Z M 266.886719 239.175781 C 271.445312 236.714844 276.066406 234.253906 280.625 231.734375 C 283.988281 229.816406 287.285156 227.714844 290.648438 225.734375 C 293.769531 223.875 296.46875 221.59375 299.226562 219.253906 C 300.367188 218.292969 301.570312 217.394531 302.707031 216.492188 C 304.628906 215.054688 306.488281 213.613281 308.410156 212.234375 C 311.109375 210.253906 313.871094 208.273438 316.511719 206.113281 C 319.089844 204.011719 321.671875 201.851562 324.25 199.75 C 324.429688 199.570312 324.609375 199.453125 324.851562 199.390625 C 324.429688 198.070312 323.949219 196.75 323.351562 195.550781 C 321.550781 191.890625 319.75 188.289062 317.832031 184.691406 C 315.789062 180.847656 313.75 176.949219 312.007812 172.929688 C 309.789062 167.828125 307.328125 162.847656 304.628906 157.988281 C 299.707031 149.046875 294.726562 140.105469 289.925781 131.105469 C 289.628906 130.503906 289.328125 129.84375 288.90625 129.304688 C 286.566406 130.921875 284.285156 132.542969 282.066406 134.285156 C 280.265625 135.664062 278.464844 137.105469 276.726562 138.484375 C 275.824219 139.203125 274.984375 139.984375 274.144531 140.765625 C 271.207031 143.40625 268.445312 146.164062 265.683594 148.984375 C 263.464844 151.324219 261.484375 153.847656 259.445312 156.304688 C 258.84375 157.027344 258.242188 157.867188 257.523438 158.464844 C 256.5625 159.308594 256.261719 160.386719 256.261719 161.585938 C 256.261719 164.765625 256.144531 168.007812 256.324219 171.1875 C 256.503906 174.96875 256.382812 178.6875 256.503906 182.46875 C 256.5625 185.53125 256.625 188.589844 256.742188 191.648438 C 256.863281 194.109375 256.984375 196.511719 257.164062 198.972656 C 257.34375 201.429688 257.464844 203.890625 257.582031 206.410156 C 257.703125 208.09375 257.644531 209.710938 257.765625 211.390625 C 257.882812 213.492188 258.125 215.59375 258.304688 217.691406 C 258.484375 219.492188 258.605469 221.355469 258.785156 223.152344 C 258.902344 224.535156 259.023438 225.914062 259.144531 227.292969 C 259.203125 227.773438 259.203125 228.253906 259.203125 228.734375 C 260.042969 230.894531 260.824219 233.054688 261.84375 235.09375 C 262.683594 236.835938 263.464844 238.636719 264.484375 240.316406 C 265.324219 240.074219 266.105469 239.59375 266.886719 239.175781 Z M 213.660156 61.136719 C 213.777344 64.015625 213.597656 66.898438 212.757812 69.71875 C 211.738281 73.136719 210.660156 76.558594 209.039062 79.796875 C 207.71875 82.378906 206.21875 84.839844 204.117188 86.9375 C 202.558594 88.5 200.9375 90 199.078125 91.257812 C 197.515625 92.339844 195.71875 92.820312 193.976562 93.539062 C 191.578125 94.621094 188.996094 95.039062 186.355469 95.398438 C 183.355469 95.820312 180.296875 95.761719 177.296875 95.28125 C 173.695312 94.738281 170.214844 93.960938 166.792969 92.757812 C 164.753906 92.039062 162.832031 91.199219 161.03125 89.9375 C 160.3125 89.460938 159.652344 88.859375 159.054688 88.257812 C 156.652344 86.039062 154.191406 83.878906 152.511719 81 C 151.3125 78.957031 150.171875 76.917969 149.453125 74.699219 C 149.09375 73.558594 148.792969 72.355469 148.3125 71.277344 C 147.710938 69.898438 147.53125 68.457031 147.410156 66.957031 C 147.292969 65.457031 146.933594 64.015625 146.992188 62.515625 C 146.210938 62.816406 145.671875 63.476562 145.011719 63.957031 C 142.609375 65.875 140.511719 68.15625 138.109375 70.078125 C 138.472656 70.257812 138.472656 70.617188 138.53125 70.976562 C 139.128906 73.617188 139.730469 76.257812 140.632812 78.839844 C 141.652344 81.71875 142.730469 84.597656 144.351562 87.238281 C 144.953125 88.199219 145.492188 89.160156 145.972656 90.121094 C 147.050781 92.097656 148.3125 93.898438 149.8125 95.640625 C 151.132812 97.199219 152.511719 98.699219 153.890625 100.199219 C 156.53125 103.019531 159.832031 105 163.375 106.5625 C 166.3125 107.882812 169.433594 108.660156 172.496094 109.621094 C 173.09375 109.800781 173.695312 109.863281 174.355469 109.921875 C 177.296875 110.160156 180.234375 110.519531 183.234375 110.402344 C 188.035156 110.222656 192.714844 109.320312 197.277344 107.640625 C 199.675781 106.742188 202.019531 105.722656 204.117188 104.222656 C 205.976562 102.839844 207.839844 101.460938 209.457031 99.839844 C 211.917969 97.5 213.839844 94.679688 215.519531 91.738281 C 216.480469 89.9375 217.5 88.199219 218.398438 86.339844 C 219.78125 83.398438 221.160156 80.457031 221.941406 77.277344 C 222.480469 74.878906 223.199219 72.476562 223.621094 70.015625 C 223.738281 69.238281 223.921875 68.457031 223.921875 67.675781 C 223.921875 67.496094 223.980469 67.316406 224.101562 67.195312 C 223.679688 66.777344 223.261719 66.296875 222.78125 65.875 C 220.738281 64.078125 218.757812 62.097656 216.359375 60.777344 C 215.460938 60.234375 214.558594 59.9375 213.597656 60.535156 C 213.597656 60.714844 213.597656 60.957031 213.660156 61.136719 Z M 255.785156 345.867188 C 253.144531 346.886719 250.382812 347.546875 247.621094 348.207031 C 246.902344 348.386719 246.121094 348.449219 245.402344 348.507812 C 241.203125 348.808594 237 348.867188 232.800781 348.6875 C 229.140625 348.566406 225.539062 348.386719 221.878906 347.96875 C 219.78125 347.726562 217.621094 347.425781 215.519531 347.847656 C 215.039062 347.90625 214.558594 347.90625 214.078125 347.90625 C 209.699219 347.90625 205.316406 347.96875 200.9375 347.90625 C 195.058594 347.847656 189.234375 348.265625 183.355469 348.085938 C 180.65625 348.027344 178.015625 347.847656 175.316406 347.726562 C 171.65625 347.546875 167.933594 347.488281 164.273438 347.246094 C 161.632812 347.066406 158.992188 346.949219 156.351562 346.828125 C 154.613281 346.765625 152.871094 346.46875 151.132812 346.347656 C 148.433594 346.167969 145.730469 346.167969 143.089844 346.765625 C 141.652344 347.128906 140.210938 347.425781 138.769531 347.789062 C 137.269531 348.207031 135.710938 348.265625 134.210938 348.507812 C 132.46875 348.746094 130.730469 348.925781 128.988281 349.109375 C 128.03125 349.167969 127.070312 349.226562 126.109375 349.109375 C 124.730469 348.925781 123.347656 348.988281 121.96875 348.808594 C 119.6875 348.507812 117.410156 348.148438 115.1875 347.488281 C 110.566406 346.167969 106.1875 344.367188 102.285156 341.546875 C 101.507812 341.007812 100.785156 340.347656 100.007812 339.746094 C 99.886719 340.046875 99.886719 340.347656 99.886719 340.648438 C 99.828125 342.148438 99.828125 343.707031 99.644531 345.207031 C 99.527344 346.167969 99.945312 346.828125 100.605469 347.367188 C 103.125 349.46875 105.945312 351.027344 109.066406 351.988281 C 113.027344 353.25 117.109375 353.90625 121.25 353.96875 C 122.507812 353.96875 123.710938 354.089844 124.96875 353.847656 C 126.167969 353.609375 127.429688 353.609375 128.691406 353.429688 C 130.128906 353.25 131.570312 353.308594 133.011719 353.128906 C 136.308594 352.707031 139.429688 351.628906 142.671875 350.847656 C 146.152344 350.066406 149.632812 349.707031 153.113281 349.707031 C 154.914062 349.707031 156.773438 349.769531 158.574219 349.949219 C 161.691406 350.246094 164.8125 350.726562 167.875 351.269531 C 172.015625 351.988281 176.15625 352.40625 180.355469 352.40625 C 182.277344 352.40625 184.195312 352.347656 186.175781 352.46875 C 188.214844 352.589844 190.316406 352.769531 192.355469 352.769531 C 194.578125 352.769531 196.796875 352.648438 198.957031 352.589844 C 204.898438 352.40625 210.839844 352.289062 216.78125 352.109375 C 218.878906 352.046875 220.980469 351.867188 223.078125 351.808594 C 225.898438 351.6875 228.660156 351.746094 231.421875 352.109375 C 232.019531 352.167969 232.679688 352.226562 233.28125 352.226562 C 235.261719 352.347656 237.179688 352.46875 239.160156 352.769531 C 239.640625 352.828125 240.121094 352.949219 240.601562 352.949219 C 242.523438 352.886719 244.441406 352.949219 246.421875 352.769531 C 251.164062 352.347656 255.664062 351.207031 259.925781 349.109375 C 261.484375 348.328125 262.746094 347.1875 264.125 346.167969 C 264.363281 345.988281 264.542969 345.6875 264.722656 345.445312 C 264.90625 345.265625 264.964844 345.027344 264.90625 344.789062 C 264.84375 343.585938 264.722656 342.386719 264.664062 341.1875 C 261.902344 343.347656 258.84375 344.605469 255.785156 345.867188 Z M 320.949219 204.613281 C 318.730469 206.59375 316.449219 208.453125 314.109375 210.3125 C 312.25 211.8125 310.269531 213.074219 308.289062 214.453125 C 305.949219 216.074219 303.488281 217.574219 301.207031 219.3125 C 298.089844 221.773438 294.847656 224.054688 291.488281 226.152344 C 286.628906 229.214844 281.707031 232.214844 276.664062 235.035156 C 273.003906 237.074219 269.464844 239.175781 265.804688 241.15625 C 265.503906 241.277344 265.265625 241.457031 264.964844 241.515625 C 265.203125 242.117188 265.503906 242.714844 265.984375 243.195312 C 266.34375 243.554688 266.703125 243.855469 267.246094 243.734375 C 268.746094 243.375 270.246094 242.957031 271.625 242.175781 C 272.707031 241.574219 273.785156 240.976562 274.925781 240.4375 C 279.425781 238.394531 283.746094 235.996094 287.765625 233.175781 C 290.765625 231.074219 293.828125 229.09375 296.828125 226.996094 C 301.75 223.574219 306.667969 220.09375 311.289062 216.3125 C 314.289062 213.851562 317.230469 211.332031 320.289062 209.050781 C 320.832031 208.632812 321.371094 208.210938 321.910156 207.730469 C 323.351562 206.53125 324.730469 205.152344 325.929688 203.710938 C 326.472656 203.050781 326.652344 202.453125 326.230469 202.152344 C 325.691406 201.730469 325.570312 201.070312 325.210938 200.53125 C 323.949219 201.972656 322.449219 203.292969 320.949219 204.613281 Z M 90.164062 237.734375 C 86.203125 235.515625 82.246094 233.296875 78.285156 231.015625 C 74.921875 229.09375 71.742188 226.933594 68.625 224.652344 C 66.222656 222.972656 63.824219 221.292969 61.542969 219.492188 C 57.523438 216.433594 53.382812 213.613281 49.421875 210.550781 C 46.839844 208.570312 44.320312 206.472656 41.738281 204.433594 C 40.78125 203.652344 39.820312 202.871094 38.859375 202.03125 C 38.738281 202.210938 38.621094 202.453125 38.441406 202.632812 C 37.71875 203.472656 37.71875 203.773438 38.378906 204.613281 C 39.761719 206.351562 41.378906 207.851562 43.121094 209.230469 C 46.421875 211.753906 49.601562 214.332031 52.78125 217.03125 C 54.402344 218.414062 56.082031 219.671875 57.761719 220.933594 C 64.421875 225.972656 71.445312 230.535156 78.285156 235.273438 C 80.925781 237.074219 83.683594 238.636719 86.566406 240.015625 C 88.546875 240.914062 90.527344 241.875 92.386719 242.957031 C 93.765625 243.734375 95.207031 244.214844 96.707031 244.574219 C 97.484375 244.757812 97.964844 244.515625 98.386719 243.976562 C 98.867188 243.4375 99.226562 242.777344 99.464844 242.117188 C 96.285156 240.855469 93.164062 239.414062 90.164062 237.734375 Z M 106.007812 228.675781 C 106.007812 228.675781 106.066406 228.734375 106.066406 228.734375 C 106.066406 228.734375 106.128906 228.675781 106.128906 228.675781 L 106.066406 228.613281 Z M 200.816406 181.988281 C 200.757812 189.371094 200.699219 196.75 200.816406 204.132812 C 200.816406 205.332031 201.058594 206.53125 200.9375 207.730469 C 200.757812 209.472656 201.058594 211.152344 200.816406 212.894531 C 200.699219 213.492188 200.996094 213.792969 201.539062 214.09375 C 205.078125 216.132812 208.738281 217.992188 212.457031 219.851562 C 215.039062 221.171875 217.621094 222.433594 220.320312 223.574219 C 220.800781 223.753906 221.160156 223.753906 221.578125 223.574219 C 222.601562 223.09375 223.679688 222.671875 224.699219 222.195312 C 227.039062 221.113281 229.441406 220.035156 231.722656 218.894531 C 235.019531 217.214844 238.320312 215.414062 241.382812 213.3125 C 242.460938 212.59375 243.0625 211.871094 242.941406 210.550781 C 242.941406 210.433594 242.941406 210.253906 242.941406 210.132812 C 242.941406 205.09375 242.882812 199.992188 243.300781 194.949219 C 243.480469 192.371094 243.664062 189.730469 243.601562 187.089844 C 243.601562 186.789062 243.664062 186.488281 243.664062 186.191406 C 243.902344 184.628906 243.480469 183.128906 243.542969 181.507812 C 241.382812 182.648438 239.28125 183.488281 237.121094 184.148438 C 235.019531 184.808594 232.921875 185.46875 230.640625 185.351562 C 229.019531 185.230469 227.402344 185.167969 225.78125 184.929688 C 221.21875 184.210938 216.597656 183.609375 212.039062 182.710938 C 208.378906 182.050781 204.65625 181.75 200.996094 181.328125 C 200.816406 181.507812 200.816406 181.75 200.816406 181.988281 Z M 241.863281 168.90625 C 240.300781 169.386719 238.683594 169.808594 237.0625 170.046875 C 235.441406 170.289062 233.820312 170.769531 232.199219 171.128906 C 230.882812 171.429688 229.5625 171.667969 228.242188 171.609375 C 226.261719 171.488281 224.28125 171.308594 222.238281 171.1875 C 221.398438 171.1875 220.621094 171.007812 219.78125 170.886719 C 217.558594 170.527344 215.277344 170.167969 213 169.988281 C 211.378906 169.867188 209.757812 169.628906 208.199219 169.449219 C 206.15625 169.207031 204.117188 168.726562 202.078125 168.726562 C 200.9375 168.726562 200.816406 168.789062 200.816406 169.929688 C 200.878906 171.308594 200.996094 172.6875 200.9375 174.070312 C 200.878906 175.269531 200.878906 176.46875 200.816406 177.667969 C 200.816406 178.988281 201.238281 179.589844 202.558594 180.007812 C 203.9375 180.429688 205.316406 180.667969 206.699219 180.789062 C 209.457031 180.96875 212.21875 181.210938 214.980469 181.808594 C 216.238281 182.109375 217.558594 182.289062 218.820312 182.46875 C 220.917969 182.769531 222.960938 183.007812 225.058594 183.25 C 226.5 183.429688 228 183.550781 229.5 183.667969 C 231.300781 183.847656 233.042969 183.429688 234.839844 183.128906 C 237.660156 182.710938 240.242188 181.449219 242.761719 180.1875 C 243.242188 179.949219 243.300781 179.648438 243.300781 179.167969 C 243.300781 177.847656 243.003906 176.527344 243.0625 175.148438 C 243.121094 173.589844 243.0625 171.96875 243.0625 170.40625 C 243.0625 169.808594 243.003906 169.269531 242.820312 168.609375 C 242.402344 168.609375 242.164062 168.847656 241.863281 168.90625 Z M 241.863281 168.90625 " fill-opacity="1" fill-rule="nonzero"/></g><path fill="#302716" d="M 106.066406 228.253906 C 106.367188 225.855469 106.667969 223.453125 106.847656 221.054688 C 107.085938 217.753906 107.148438 214.453125 107.265625 211.152344 C 107.449219 206.890625 107.507812 202.691406 107.6875 198.429688 C 107.808594 195.851562 107.746094 193.332031 107.867188 190.808594 C 108.105469 187.210938 108.046875 183.550781 107.988281 179.949219 C 107.925781 175.628906 107.867188 171.367188 107.746094 167.046875 C 107.6875 164.765625 107.386719 162.425781 107.386719 160.148438 C 107.386719 159.726562 107.328125 159.308594 107.386719 158.886719 C 107.566406 157.804688 107.027344 156.964844 106.367188 156.1875 C 104.808594 154.445312 103.246094 152.765625 101.808594 150.964844 C 100.546875 149.40625 99.226562 147.90625 97.785156 146.527344 C 95.867188 144.726562 93.765625 143.046875 91.90625 141.183594 C 91.785156 141.066406 91.605469 140.945312 91.425781 140.765625 C 89.023438 138.363281 86.503906 136.085938 83.925781 133.925781 C 81.523438 131.945312 79.003906 130.082031 76.125 128.882812 C 76.304688 128.285156 76.664062 127.804688 76.964844 127.324219 C 79.484375 128.703125 81.824219 130.324219 84.105469 132.125 C 88.003906 135.183594 91.785156 138.425781 95.265625 141.964844 C 97.546875 144.304688 99.828125 146.585938 102.167969 148.867188 C 103.667969 150.367188 105.046875 152.046875 106.425781 153.667969 C 106.667969 153.964844 106.96875 154.328125 107.386719 154.625 C 107.386719 153.367188 107.449219 152.167969 107.386719 150.964844 C 107.328125 149.226562 107.148438 147.546875 107.027344 145.804688 C 106.90625 143.40625 106.90625 141.003906 106.789062 138.542969 C 106.546875 133.742188 106.007812 128.945312 104.6875 124.261719 C 104.328125 122.941406 103.96875 121.621094 103.488281 120.300781 C 102.707031 118.082031 102.105469 115.800781 101.445312 113.582031 C 101.027344 112.203125 100.667969 110.882812 100.304688 109.5 C 100.246094 109.320312 100.1875 109.203125 100.246094 109.019531 C 100.546875 108.960938 100.667969 109.261719 100.726562 109.441406 C 101.808594 111.179688 102.648438 113.042969 103.425781 114.902344 C 103.667969 115.382812 103.847656 115.921875 104.085938 116.402344 C 105.707031 119.824219 106.367188 123.542969 107.207031 127.203125 C 107.746094 129.484375 107.988281 131.765625 108.289062 134.042969 C 108.648438 137.042969 108.886719 139.984375 109.128906 142.984375 C 109.367188 145.503906 109.546875 148.085938 109.726562 150.605469 C 109.90625 153.1875 110.027344 155.765625 110.148438 158.347656 C 110.328125 161.167969 110.328125 163.925781 110.269531 166.746094 C 110.027344 172.867188 110.207031 179.050781 110.027344 185.167969 C 109.90625 189.011719 110.027344 192.910156 109.847656 196.75 C 109.726562 199.929688 109.609375 203.171875 109.425781 206.351562 C 109.308594 208.570312 109.246094 210.734375 109.066406 212.953125 C 108.949219 214.210938 108.828125 215.414062 108.585938 216.613281 C 108.40625 217.753906 108.289062 218.894531 108.289062 219.972656 C 108.226562 222.253906 107.867188 224.472656 107.566406 226.753906 C 107.148438 229.695312 106.605469 232.574219 105.945312 235.457031 C 105.886719 235.816406 105.828125 236.113281 105.707031 236.476562 C 105.648438 236.65625 105.585938 236.65625 105.40625 236.65625 C 105.527344 234.015625 105.765625 231.375 106.007812 228.734375 C 106.007812 228.734375 106.066406 228.675781 106.066406 228.675781 L 106.007812 228.613281 C 106.066406 228.496094 106.066406 228.375 106.066406 228.253906 Z M 148.730469 61.4375 C 148.132812 61.796875 147.589844 62.15625 146.992188 62.515625 C 146.933594 64.015625 147.292969 65.457031 147.410156 66.957031 C 147.53125 68.398438 147.710938 69.898438 148.3125 71.277344 C 148.792969 72.355469 149.09375 73.558594 149.453125 74.699219 C 150.171875 76.917969 151.3125 78.957031 152.511719 81 C 154.191406 83.878906 156.652344 86.039062 159.054688 88.257812 C 159.652344 88.859375 160.3125 89.398438 161.035156 89.9375 C 162.832031 91.140625 164.753906 92.039062 166.792969 92.757812 C 170.214844 93.960938 173.753906 94.738281 177.296875 95.28125 C 180.296875 95.761719 183.355469 95.820312 186.355469 95.398438 C 188.9375 95.039062 191.515625 94.558594 193.976562 93.539062 C 195.65625 92.820312 197.457031 92.339844 199.078125 91.257812 C 200.878906 90 202.558594 88.5 204.117188 86.9375 C 206.15625 84.839844 207.71875 82.378906 209.039062 79.796875 C 210.660156 76.617188 211.738281 73.199219 212.757812 69.71875 C 213.597656 66.898438 213.777344 64.015625 213.660156 61.136719 C 213.660156 60.894531 213.660156 60.714844 213.480469 60.597656 C 213.117188 60.65625 212.757812 60.65625 212.398438 60.414062 C 212.160156 60.476562 212.039062 60.597656 212.039062 60.835938 C 211.917969 62.457031 211.558594 64.015625 211.617188 65.636719 C 211.617188 65.996094 211.558594 66.355469 211.5 66.777344 C 211.257812 67.675781 211.320312 67.675781 210.480469 67.855469 C 208.917969 68.21875 207.417969 68.578125 205.917969 69.117188 C 203.699219 69.898438 201.476562 70.617188 199.199219 71.15625 C 196.738281 71.757812 194.21875 72.117188 191.695312 72.417969 C 189.296875 72.71875 186.835938 72.835938 184.375 72.957031 C 180.117188 73.136719 175.855469 73.015625 171.59375 72.417969 C 169.015625 72.058594 166.492188 71.816406 163.972656 71.335938 C 161.691406 70.917969 159.414062 70.617188 157.191406 70.136719 C 155.03125 69.65625 152.871094 68.996094 150.59375 69.65625 C 150.230469 69.777344 149.992188 69.597656 149.933594 69.175781 C 149.753906 68.035156 149.570312 66.898438 149.332031 65.757812 C 148.910156 64.4375 149.273438 63.175781 149.933594 61.976562 C 150.050781 61.734375 150.113281 61.554688 150.113281 61.257812 C 149.570312 61.074219 149.152344 61.195312 148.730469 61.4375 Z M 207.898438 78.117188 C 206.398438 81.058594 204.296875 83.578125 202.378906 86.21875 C 202.078125 86.640625 201.65625 87 201.296875 87.359375 C 198.898438 89.757812 196.078125 91.378906 192.957031 92.578125 C 189.234375 94.019531 185.335938 94.441406 181.375 94.140625 C 176.816406 93.839844 172.375 93.121094 168.054688 91.738281 C 166.132812 91.078125 164.394531 90.179688 162.714844 89.097656 C 160.074219 87.359375 157.914062 85.199219 155.753906 82.976562 C 155.152344 82.378906 154.734375 81.597656 154.253906 80.878906 C 153.292969 79.378906 152.390625 77.816406 151.671875 76.199219 C 151.371094 75.597656 151.132812 74.9375 151.011719 74.21875 C 151.972656 73.917969 152.8125 74.277344 153.710938 74.398438 C 158.332031 75.058594 162.894531 76.199219 167.394531 77.335938 C 169.492188 77.878906 171.65625 78.117188 173.816406 78.296875 C 175.253906 78.417969 176.636719 78.539062 178.015625 78.417969 C 179.816406 78.296875 181.617188 78.296875 183.355469 78.058594 C 183.835938 77.996094 184.375 78.058594 184.914062 77.996094 C 188.15625 77.878906 191.398438 77.457031 194.636719 76.917969 C 199.199219 76.136719 203.519531 74.398438 207.898438 72.957031 C 208.4375 72.777344 208.917969 72.597656 209.457031 72.476562 C 209.699219 72.417969 210 72.355469 210.417969 72.296875 C 209.699219 74.398438 208.859375 76.257812 207.898438 78.117188 Z M 211.078125 69.355469 C 210.957031 70.015625 211.019531 70.738281 210.660156 71.21875 C 210.296875 71.757812 209.519531 71.578125 208.917969 71.695312 C 206.339844 72.296875 203.816406 73.078125 201.296875 74.039062 C 199.316406 74.757812 197.21875 75.175781 195.117188 75.539062 C 193.078125 75.898438 190.976562 76.257812 188.9375 76.558594 C 187.074219 76.796875 185.214844 76.859375 183.414062 77.039062 C 181.734375 77.15625 180.054688 77.335938 178.375 77.398438 C 175.734375 77.519531 173.09375 77.21875 170.515625 76.675781 C 166.613281 75.898438 162.832031 74.878906 158.933594 74.039062 C 156.894531 73.617188 154.914062 73.136719 152.871094 72.71875 C 152.332031 72.597656 151.792969 72.65625 151.253906 72.65625 C 150.59375 72.597656 150.472656 72.476562 150.410156 71.757812 C 150.351562 71.21875 150.53125 71.035156 151.070312 70.917969 C 152.210938 70.675781 153.351562 70.855469 154.433594 71.035156 C 156.652344 71.398438 158.871094 71.695312 161.035156 71.996094 C 163.011719 72.296875 164.992188 72.597656 166.914062 72.898438 C 167.695312 73.015625 168.472656 73.078125 169.253906 73.136719 C 170.574219 73.199219 171.835938 73.4375 173.15625 73.4375 C 173.933594 73.4375 174.714844 73.558594 175.496094 73.675781 C 178.675781 74.097656 181.914062 74.097656 185.097656 74.039062 C 187.257812 73.976562 189.417969 73.855469 191.578125 73.496094 C 196.4375 72.777344 201.238281 71.695312 205.917969 70.078125 C 207.296875 69.597656 208.738281 69.355469 210.117188 69.117188 C 210.417969 69.058594 210.777344 68.996094 211.140625 69.175781 C 211.078125 69.296875 211.078125 69.296875 211.078125 69.355469 Z M 288.066406 127.683594 C 284.945312 129.84375 281.828125 132.003906 278.945312 134.464844 C 277.566406 135.605469 276.125 136.625 274.804688 137.882812 C 271.925781 140.523438 269.105469 143.164062 266.40625 145.984375 C 265.085938 147.367188 263.824219 148.746094 262.5625 150.1875 C 260.644531 152.347656 259.082031 154.804688 257.164062 157.027344 C 257.042969 157.148438 256.984375 157.386719 256.683594 157.265625 C 256.683594 156.847656 256.742188 156.367188 256.742188 155.945312 C 256.804688 150.304688 256.804688 144.726562 256.984375 139.085938 C 256.984375 138.246094 256.984375 137.34375 257.042969 136.503906 C 257.222656 133.382812 257.402344 130.261719 257.582031 127.144531 C 257.703125 124.621094 257.765625 122.101562 257.882812 119.582031 C 257.882812 119.460938 257.882812 119.28125 257.882812 119.164062 C 258.125 116.941406 258.003906 114.78125 258.003906 112.5625 C 258.003906 111.902344 257.644531 111.363281 257.285156 111.363281 C 256.921875 111.300781 256.503906 111.78125 256.382812 112.5 C 256.144531 113.882812 255.964844 115.261719 255.964844 116.703125 C 255.964844 118.5625 255.84375 120.421875 255.722656 122.28125 C 255.542969 124.742188 255.304688 127.144531 255.363281 129.605469 C 255.363281 132.84375 255.421875 136.085938 255.542969 139.324219 C 255.722656 144.003906 255.484375 148.6875 255.242188 153.367188 C 255.003906 157.445312 254.761719 161.46875 254.582031 165.546875 C 254.464844 168.007812 254.464844 170.527344 254.402344 172.988281 C 254.285156 176.347656 254.582031 179.648438 254.703125 183.007812 C 254.824219 185.648438 254.761719 188.289062 254.882812 190.992188 C 255.003906 192.910156 255.0625 194.769531 255.183594 196.691406 C 255.242188 197.589844 255.304688 198.550781 255.363281 199.453125 C 255.542969 201.492188 255.785156 203.53125 255.902344 205.632812 C 256.023438 207.851562 256.144531 210.011719 256.324219 212.234375 C 256.5625 215.414062 256.742188 218.652344 256.921875 221.832031 C 257.164062 225.492188 257.402344 229.09375 257.765625 232.753906 C 258.0625 235.574219 258.542969 238.394531 259.082031 241.214844 C 259.144531 241.394531 259.203125 241.457031 259.324219 241.394531 C 259.144531 237.554688 258.785156 233.773438 258.484375 229.933594 C 258.425781 229.15625 258.363281 228.375 258.363281 227.65625 C 258.425781 227.65625 258.484375 227.65625 258.542969 227.59375 C 258.785156 228.015625 259.023438 228.375 259.265625 228.792969 C 259.265625 228.3125 259.265625 227.835938 259.203125 227.355469 C 259.082031 225.972656 258.964844 224.59375 258.84375 223.214844 C 258.664062 221.414062 258.542969 219.554688 258.363281 217.753906 C 258.183594 215.652344 257.945312 213.554688 257.824219 211.453125 C 257.703125 209.832031 257.765625 208.152344 257.644531 206.472656 C 257.523438 204.011719 257.34375 201.550781 257.222656 199.03125 C 257.042969 196.570312 256.921875 194.171875 256.804688 191.710938 C 256.683594 188.648438 256.625 185.589844 256.5625 182.53125 C 256.503906 178.75 256.5625 175.027344 256.382812 171.25 C 256.261719 168.066406 256.324219 164.828125 256.324219 161.648438 C 256.324219 160.445312 256.625 159.367188 257.582031 158.527344 C 258.304688 157.867188 258.84375 157.085938 259.503906 156.367188 C 261.542969 153.90625 263.523438 151.386719 265.746094 149.046875 C 268.445312 146.164062 271.265625 143.464844 274.207031 140.824219 C 275.046875 140.042969 275.886719 139.265625 276.785156 138.542969 C 278.527344 137.105469 280.328125 135.722656 282.125 134.34375 C 284.347656 132.605469 286.6875 130.984375 288.96875 129.363281 C 288.726562 128.703125 288.425781 128.164062 288.066406 127.683594 Z M 264.542969 340.046875 C 263.945312 340.40625 263.34375 340.886719 262.683594 341.1875 C 259.742188 342.808594 256.683594 344.128906 253.503906 345.265625 C 251.042969 346.105469 248.582031 346.886719 246.003906 347.007812 C 243.480469 347.128906 240.960938 347.308594 238.441406 347.308594 C 234.960938 347.308594 231.480469 347.367188 228 347.1875 C 225.480469 347.066406 222.898438 346.886719 220.378906 346.765625 C 217.019531 346.585938 213.660156 346.289062 210.238281 346.289062 C 205.316406 346.289062 200.335938 346.347656 195.417969 346.347656 C 195.175781 346.347656 194.9375 346.347656 194.695312 346.347656 C 192.417969 346.648438 190.078125 346.585938 187.796875 346.648438 C 184.316406 346.707031 180.835938 346.527344 177.355469 346.347656 C 175.015625 346.226562 172.675781 346.226562 170.335938 346.46875 C 169.015625 346.585938 167.632812 346.46875 166.3125 346.347656 C 164.035156 346.226562 161.691406 346.289062 159.414062 346.105469 C 157.253906 345.988281 155.152344 345.746094 153.050781 345.328125 C 151.433594 345.027344 149.753906 344.546875 148.070312 344.605469 C 144.769531 344.789062 141.53125 345.207031 138.410156 345.988281 C 135.351562 346.765625 132.230469 347.308594 129.050781 347.488281 C 125.570312 347.667969 122.148438 347.308594 118.789062 346.585938 C 117.046875 346.226562 115.308594 345.988281 113.6875 345.328125 C 110.148438 343.945312 106.789062 342.386719 103.605469 340.285156 C 102.464844 339.507812 101.265625 338.785156 99.945312 338.367188 C 99.828125 338.847656 99.765625 339.328125 99.886719 339.804688 C 100.605469 340.40625 101.386719 341.066406 102.167969 341.605469 C 106.128906 344.425781 110.449219 346.226562 115.066406 347.546875 C 117.289062 348.207031 119.570312 348.566406 121.847656 348.867188 C 123.230469 349.046875 124.609375 348.988281 125.988281 349.167969 C 126.949219 349.289062 127.910156 349.226562 128.871094 349.167969 C 130.609375 349.046875 132.351562 348.808594 134.089844 348.566406 C 135.652344 348.386719 137.152344 348.265625 138.652344 347.847656 C 140.089844 347.488281 141.53125 347.128906 142.972656 346.828125 C 145.613281 346.226562 148.3125 346.167969 151.011719 346.40625 C 152.753906 346.527344 154.492188 346.828125 156.234375 346.886719 C 158.871094 347.007812 161.511719 347.128906 164.152344 347.308594 C 167.8125 347.546875 171.535156 347.609375 175.195312 347.789062 C 177.894531 347.90625 180.535156 348.085938 183.234375 348.148438 C 189.117188 348.328125 194.9375 347.90625 200.816406 347.96875 C 205.199219 348.027344 209.578125 347.96875 213.957031 347.96875 C 214.4375 347.96875 214.917969 348.027344 215.398438 347.90625 C 217.558594 347.546875 219.660156 347.789062 221.761719 348.027344 C 225.421875 348.449219 229.019531 348.566406 232.679688 348.746094 C 236.882812 348.925781 241.082031 348.808594 245.28125 348.566406 C 246.0625 348.507812 246.78125 348.449219 247.503906 348.265625 C 250.261719 347.546875 253.023438 346.949219 255.664062 345.925781 C 258.722656 344.726562 261.785156 343.40625 264.484375 341.367188 C 264.605469 340.886719 264.605469 340.464844 264.542969 340.046875 Z M 137.03125 70.855469 C 137.03125 72.058594 137.390625 73.136719 137.570312 74.335938 C 138.109375 77.757812 139.492188 80.9375 140.992188 84.058594 C 143.03125 88.320312 145.550781 92.28125 148.25 96.121094 C 149.390625 97.800781 150.710938 99.359375 152.210938 100.742188 C 153.050781 101.460938 153.890625 102.121094 154.734375 102.902344 C 157.433594 105.300781 160.433594 107.101562 163.792969 108.421875 C 167.035156 109.679688 170.335938 110.460938 173.753906 111.121094 C 176.335938 111.601562 178.976562 111.660156 181.554688 111.78125 C 184.375 111.960938 187.195312 111.660156 190.015625 111.179688 C 191.875 110.882812 193.738281 110.582031 195.535156 109.980469 C 198.539062 108.960938 201.417969 107.582031 204.117188 105.960938 C 206.15625 104.699219 208.136719 103.378906 209.757812 101.640625 C 211.140625 100.199219 212.21875 98.519531 213.480469 96.960938 C 216 93.839844 218.160156 90.480469 219.71875 86.757812 C 221.101562 83.457031 222.660156 80.21875 223.679688 76.796875 C 224.519531 74.039062 225.121094 71.277344 225.179688 68.398438 C 224.878906 67.976562 224.460938 67.675781 224.039062 67.375 C 223.921875 67.496094 223.859375 67.675781 223.859375 67.855469 C 223.859375 68.636719 223.679688 69.417969 223.558594 70.195312 C 223.140625 72.65625 222.480469 74.996094 221.878906 77.457031 C 221.160156 80.636719 219.78125 83.578125 218.339844 86.519531 C 217.4375 88.378906 216.480469 90.121094 215.460938 91.917969 C 213.777344 94.859375 211.859375 97.679688 209.398438 100.019531 C 207.71875 101.640625 205.917969 103.019531 204.058594 104.402344 C 201.957031 105.902344 199.675781 106.921875 197.21875 107.820312 C 192.65625 109.5 188.035156 110.402344 183.175781 110.582031 C 180.175781 110.703125 177.234375 110.339844 174.292969 110.101562 C 173.695312 110.042969 173.035156 109.980469 172.433594 109.800781 C 169.375 108.839844 166.253906 108.0625 163.3125 106.742188 C 159.773438 105.179688 156.53125 103.199219 153.832031 100.378906 C 152.453125 98.878906 151.070312 97.378906 149.753906 95.820312 C 148.3125 94.140625 146.992188 92.28125 145.910156 90.300781 C 145.371094 89.339844 144.832031 88.378906 144.292969 87.417969 C 142.671875 84.777344 141.589844 81.898438 140.570312 79.019531 C 139.671875 76.4375 139.011719 73.796875 138.472656 71.15625 C 138.410156 70.796875 138.410156 70.4375 138.050781 70.257812 C 137.75 70.378906 137.390625 70.617188 137.03125 70.855469 Z M 324.851562 199.332031 C 324.609375 199.390625 324.429688 199.570312 324.25 199.691406 C 321.671875 201.851562 319.089844 203.953125 316.511719 206.050781 C 313.871094 208.210938 311.167969 210.191406 308.410156 212.171875 C 306.488281 213.554688 304.570312 214.992188 302.707031 216.433594 C 301.507812 217.332031 300.367188 218.234375 299.226562 219.195312 C 296.46875 221.472656 293.769531 223.8125 290.648438 225.675781 C 287.285156 227.652344 284.046875 229.753906 280.625 231.675781 C 276.066406 234.253906 271.503906 236.65625 266.886719 239.117188 C 266.105469 239.535156 265.324219 240.015625 264.484375 240.253906 C 264.605469 240.734375 264.785156 241.15625 265.085938 241.515625 C 265.382812 241.457031 265.625 241.277344 265.925781 241.15625 C 269.585938 239.175781 273.1875 237.015625 276.785156 235.035156 C 281.828125 232.214844 286.6875 229.214844 291.609375 226.152344 C 294.96875 224.054688 298.148438 221.714844 301.328125 219.3125 C 303.609375 217.574219 306.007812 216.074219 308.410156 214.453125 C 310.390625 213.074219 312.371094 211.8125 314.230469 210.3125 C 316.570312 208.453125 318.851562 206.59375 321.070312 204.613281 C 322.570312 203.292969 324.070312 201.972656 325.390625 200.472656 C 325.089844 200.109375 324.972656 199.691406 324.851562 199.332031 Z M 100.007812 241.035156 C 99.707031 240.914062 99.464844 240.734375 99.167969 240.617188 C 95.746094 239.234375 92.324219 237.675781 89.085938 235.875 C 86.863281 234.613281 84.703125 233.234375 82.484375 232.035156 C 79.785156 230.535156 77.085938 229.09375 74.5625 227.414062 C 70.242188 224.59375 66.042969 221.59375 61.902344 218.59375 C 59.921875 217.152344 57.820312 215.773438 55.960938 214.09375 C 55.121094 213.3125 54.339844 212.472656 53.441406 211.8125 C 49.480469 208.753906 45.582031 205.691406 41.5 202.75 C 40.71875 202.210938 40.058594 201.429688 39.21875 201.011719 C 38.980469 201.3125 38.859375 201.671875 38.800781 202.03125 C 39.761719 202.8125 40.71875 203.652344 41.679688 204.433594 C 44.199219 206.472656 46.78125 208.570312 49.359375 210.550781 C 53.320312 213.613281 57.460938 216.492188 61.480469 219.492188 C 63.824219 221.292969 66.222656 222.972656 68.5625 224.652344 C 71.683594 226.875 74.863281 229.09375 78.222656 231.015625 C 82.183594 233.296875 86.085938 235.515625 90.105469 237.734375 C 93.105469 239.414062 96.226562 240.855469 99.464844 242.117188 C 99.765625 241.757812 99.945312 241.394531 100.007812 241.035156 Z M 199.917969 213.492188 C 200.039062 214.332031 200.398438 214.8125 201.058594 215.292969 C 204.597656 217.511719 208.320312 219.375 212.097656 221.234375 C 214.617188 222.492188 217.257812 223.515625 219.898438 224.472656 C 220.257812 224.59375 220.621094 224.773438 220.980469 224.652344 C 222.238281 224.234375 223.558594 223.933594 224.820312 223.453125 C 227.28125 222.492188 229.679688 221.472656 231.960938 220.214844 C 233.882812 219.191406 235.863281 218.171875 237.78125 217.09375 C 239.703125 215.953125 241.683594 214.8125 243.242188 213.191406 C 243.542969 212.894531 243.722656 212.59375 243.78125 212.113281 C 243.84375 210.671875 244.082031 209.230469 244.140625 207.792969 C 244.382812 204.492188 244.621094 201.191406 244.742188 197.890625 C 244.863281 193.75 245.042969 189.609375 245.164062 185.46875 C 245.28125 181.027344 245.460938 176.648438 245.402344 172.207031 C 245.402344 170.46875 245.460938 168.667969 245.222656 166.925781 C 245.164062 166.449219 244.984375 166.148438 244.503906 166.085938 C 244.261719 166.085938 244.023438 166.027344 243.78125 166.027344 C 241.863281 166.328125 239.941406 166.566406 238.082031 166.867188 C 235.679688 167.226562 233.28125 167.46875 230.882812 167.585938 C 225.839844 167.828125 220.800781 167.46875 215.757812 167.40625 C 215.699219 167.40625 215.640625 167.40625 215.578125 167.40625 C 213.117188 167.167969 210.660156 167.046875 208.136719 167.046875 C 205.976562 167.046875 203.816406 167.046875 201.65625 167.226562 C 200.21875 167.347656 199.859375 167.585938 199.738281 169.027344 C 199.738281 169.148438 199.738281 169.328125 199.738281 169.449219 C 199.675781 175.269531 199.738281 181.089844 199.558594 186.910156 C 199.378906 193.511719 199.4375 200.171875 199.738281 206.773438 C 199.859375 209.113281 199.617188 211.273438 199.917969 213.492188 Z M 211.980469 182.648438 C 216.539062 183.488281 221.160156 184.089844 225.71875 184.871094 C 227.339844 185.109375 228.960938 185.167969 230.582031 185.289062 C 232.859375 185.46875 234.960938 184.75 237.0625 184.089844 C 239.222656 183.429688 241.320312 182.589844 243.480469 181.449219 C 243.480469 183.070312 243.84375 184.570312 243.601562 186.128906 C 243.542969 186.429688 243.542969 186.730469 243.542969 187.03125 C 243.601562 189.671875 243.421875 192.25 243.242188 194.890625 C 242.882812 199.929688 242.882812 205.03125 242.882812 210.074219 C 242.882812 210.191406 242.882812 210.371094 242.882812 210.492188 C 243.0625 211.8125 242.402344 212.53125 241.320312 213.253906 C 238.203125 215.351562 234.960938 217.152344 231.660156 218.832031 C 229.378906 220.035156 226.980469 221.054688 224.640625 222.132812 C 223.621094 222.613281 222.539062 223.035156 221.519531 223.515625 C 221.101562 223.753906 220.738281 223.753906 220.257812 223.515625 C 217.621094 222.375 214.980469 221.054688 212.398438 219.792969 C 208.738281 217.933594 205.078125 216.074219 201.476562 214.03125 C 200.9375 213.734375 200.636719 213.433594 200.757812 212.832031 C 201.058594 211.152344 200.699219 209.414062 200.878906 207.671875 C 200.996094 206.472656 200.816406 205.273438 200.757812 204.070312 C 200.636719 196.691406 200.699219 189.308594 200.757812 181.929688 C 200.757812 181.6875 200.699219 181.449219 200.878906 181.210938 C 204.65625 181.6875 208.320312 181.988281 211.980469 182.648438 Z M 243.0625 170.40625 C 243.0625 171.96875 243.121094 173.589844 243.0625 175.148438 C 243.003906 176.527344 243.300781 177.847656 243.300781 179.167969 C 243.300781 179.648438 243.242188 179.949219 242.761719 180.1875 C 240.242188 181.449219 237.660156 182.648438 234.839844 183.128906 C 233.101562 183.371094 231.300781 183.847656 229.5 183.667969 C 228 183.550781 226.558594 183.429688 225.058594 183.25 C 222.960938 183.007812 220.917969 182.769531 218.820312 182.46875 C 217.5 182.289062 216.238281 182.109375 214.980469 181.808594 C 212.21875 181.210938 209.457031 180.96875 206.699219 180.789062 C 205.257812 180.730469 203.878906 180.429688 202.558594 180.007812 C 201.238281 179.589844 200.816406 178.988281 200.816406 177.667969 C 200.816406 176.46875 200.816406 175.269531 200.9375 174.070312 C 200.996094 172.6875 200.878906 171.308594 200.816406 169.929688 C 200.816406 168.789062 200.878906 168.726562 202.078125 168.726562 C 204.179688 168.789062 206.15625 169.207031 208.199219 169.449219 C 209.820312 169.628906 211.378906 169.867188 213 169.988281 C 215.277344 170.167969 217.5 170.46875 219.78125 170.886719 C 220.621094 171.007812 221.398438 171.128906 222.238281 171.1875 C 224.21875 171.25 226.199219 171.488281 228.242188 171.609375 C 229.5625 171.667969 230.882812 171.429688 232.199219 171.128906 C 233.820312 170.769531 235.382812 170.289062 237.0625 170.046875 C 238.742188 169.808594 240.300781 169.449219 241.863281 168.90625 C 242.164062 168.789062 242.402344 168.609375 242.820312 168.609375 C 243.003906 169.269531 243.0625 169.808594 243.0625 170.40625 Z M 243.0625 170.40625 " fill-opacity="1" fill-rule="nonzero"/></svg>